<?xml version="1.0" encoding="UTF-8"?>
<svg width="16px" height="16px" viewBox="0 0 16 16" version="1.1" xmlns="http://www.w3.org/2000/svg" xmlns:xlink="http://www.w3.org/1999/xlink">
  <g id="Icons-/-Calendar">
    <path d="M15.571,6.9999 L0.428,6.9999 C0.193,6.9999 1.5276658e-13,7.1929 1.5276658e-13,7.4289 L1.5276658e-13,14.3999 C1.5276658e-13,15.2799 0.72,15.9999 1.599,15.9999 L14.401,15.9999 C15.281,15.9999 16,15.2799 16,14.3999 L16,7.4289 C16,7.1929 15.807,6.9999 15.571,6.9999"></path>
    <path d="M15.9997,3.8856 C15.9997,3.0066 15.2797,2.2856 14.4007,2.2856 L12.5707,2.2856 L12.5707,0.4286 C12.5707,0.1926 12.3787,-0.0004 12.1437,-0.0004 L10.7147,-0.0004 C10.4787,-0.0004 10.2857,0.1926 10.2857,0.4286 L10.2857,2.2856 L5.7147,2.2856 L5.7147,0.4286 C5.7147,0.1926 5.5207,-0.0004 5.2857,-0.0004 L3.8567,-0.0004 C3.6217,-0.0004 3.4287,0.1926 3.4287,0.4286 L3.4287,2.2856 L1.5997,2.2856 C0.7197,2.2856 -0.0003,3.0066 -0.0003,3.8856 L-0.0003,5.5716 C-0.0003,5.8066 0.1927,5.9996 0.4287,5.9996 L15.5707,5.9996 C15.8077,5.9996 15.9997,5.8066 15.9997,5.5716 L15.9997,3.8856 Z"></path>
  </g>
</svg>
