<?xml version="1.0" encoding="UTF-8"?>
<svg width="20" height="20" version="1.1" xmlns="http://www.w3.org/2000/svg">
 <path d="m10.027 0.021484c-5.4873 0-9.9531 4.4792-9.9531 9.9785 0 5.4994 4.4659 9.9805 9.9531 9.9805 5.4872 0 9.9512-4.4811 9.9512-9.9805 0-5.4994-4.464-9.9785-9.9512-9.9785zm0 1.8105c4.505 1e-7 8.1406 3.6449 8.1406 8.168 0 4.523-3.6356 8.168-8.1406 8.168-4.505 0-8.1406-3.6449-8.1406-8.168 0-4.523 3.6355-8.168 8.1406-8.168z" color="#000000" color-rendering="auto" dominant-baseline="auto" image-rendering="auto" shape-rendering="auto" solid-color="#000000" style="font-feature-settings:normal;font-variant-alternates:normal;font-variant-caps:normal;font-variant-ligatures:normal;font-variant-numeric:normal;font-variant-position:normal;isolation:auto;mix-blend-mode:normal;shape-padding:0;text-decoration-color:#000000;text-decoration-line:none;text-decoration-style:solid;text-indent:0;text-orientation:mixed;text-transform:none;white-space:normal"/>
 <path d="m13.561 9.8377-5.0691 3.3583v-6.7166z"/>
</svg>
