<?xml version="1.0" encoding="UTF-8" standalone="no"?>
<svg
   width="16px"
   height="16px"
   viewBox="0 0 16 16"
   version="1.1"
   id="svg7"
   sodipodi:docname="91-document-pdf.svg"
   inkscape:version="1.1 (c68e22c387, 2021-05-23)"
   xmlns:inkscape="http://www.inkscape.org/namespaces/inkscape"
   xmlns:sodipodi="http://sodipodi.sourceforge.net/DTD/sodipodi-0.dtd"
   xmlns="http://www.w3.org/2000/svg"
   xmlns:svg="http://www.w3.org/2000/svg">
  <defs
     id="defs11" />
  <sodipodi:namedview
     id="namedview9"
     pagecolor="#ffffff"
     bordercolor="#666666"
     borderopacity="1.0"
     inkscape:pageshadow="2"
     inkscape:pageopacity="0.0"
     inkscape:pagecheckerboard="0"
     showgrid="false"
     inkscape:zoom="32.5"
     inkscape:cx="7.9846154"
     inkscape:cy="7.9846154"
     inkscape:window-width="1600"
     inkscape:window-height="837"
     inkscape:window-x="-8"
     inkscape:window-y="-2"
     inkscape:window-maximized="1"
     inkscape:current-layer="svg7" />
  <title
     id="title2">Icons / Document PDF</title>
  <g
     id="Icons-/-Document-PDF"
     stroke="none"
     stroke-width="1"
     fill="none"
     fill-rule="evenodd">
    <path
       style="color:#000000;fill:#000000;-inkscape-stroke:none"
       d="M 2,0 V 16 H 14.78924 V 5.5619157 L 12.402114,2.6178604 10.275237,0 Z m 1.0828073,1.0828073 6.0905606,-6.149e-4 6.149e-4,5.3642312 4.5324492,-1.537e-4 V 14.917346 H 3.0828073 Z m 7.1733677,0.6107316 1.305241,1.6065332 1.672941,2.0633905 -2.977721,1.537e-4 z"
       id="icon-document-PDF" />
    <path
       style="color:#000000;fill:#000000;-inkscape-stroke:none"
       d="m 4.835,12.55 v -1.085 h 0.4 c 0.82,0 1.35,-0.4 1.35,-1.205 C 6.585,9.53 6.185,9 5.295,9 h -1.38 v 3.55 z M 5.12,10.645 H 4.835 V 9.835 H 5.12 c 0.345,0 0.48,0.185 0.48,0.405 0,0.265 -0.175,0.405 -0.48,0.405 z m 3.11,1.905 c 1.15,0 1.825,-0.725 1.825,-1.77 C 10.055,9.73 9.335,9 8.215,9 h -1.28 v 3.55 z M 8.165,11.705 h -0.31 v -1.86 h 0.38 c 0.465,0 0.825,0.405 0.825,0.935 0,0.51 -0.355,0.925 -0.895,0.925 z m 3.225,0.845 v -1.195 h 1.245 v -0.84 H 11.39 v -0.67 h 1.52 V 9 h -2.44 v 3.55 z"
       id="PDF" />
  </g>
</svg>
