<?xml version="1.0" encoding="UTF-8" standalone="no"?>
<svg
   width="16px"
   height="16px"
   viewBox="0 0 16 16"
   version="1.1"
   id="svg9"
   sodipodi:docname="89-document-zip.svg"
   inkscape:version="1.1 (c68e22c387, 2021-05-23)"
   xmlns:inkscape="http://www.inkscape.org/namespaces/inkscape"
   xmlns:sodipodi="http://sodipodi.sourceforge.net/DTD/sodipodi-0.dtd"
   xmlns="http://www.w3.org/2000/svg"
   xmlns:svg="http://www.w3.org/2000/svg">
  <defs
     id="defs13" />
  <sodipodi:namedview
     id="namedview11"
     pagecolor="#ffffff"
     bordercolor="#666666"
     borderopacity="1.0"
     inkscape:pageshadow="2"
     inkscape:pageopacity="0.0"
     inkscape:pagecheckerboard="0"
     showgrid="false"
     inkscape:zoom="32.5"
     inkscape:cx="7.9846154"
     inkscape:cy="7.9846154"
     inkscape:window-width="1600"
     inkscape:window-height="837"
     inkscape:window-x="-8"
     inkscape:window-y="-2"
     inkscape:window-maximized="1"
     inkscape:current-layer="svg9" />
  <!-- Generator: Sketch 64 (93537) - https://sketch.com -->
  <title
     id="title2">Icons / Document ZIP</title>
  <desc
     id="desc4">Created with Sketch.</desc>
  <g
     id="Icons-/-Document-ZIP"
     stroke="none"
     stroke-width="1"
     fill="none"
     fill-rule="evenodd">
    <path
       style="color:#000000;fill:#000000;-inkscape-stroke:none"
       d="M 2,0 V 16 H 14.78924 V 5.5619157 L 12.402114,2.6178604 10.275237,0 Z m 1.0828073,1.0828073 6.0905606,-6.149e-4 6.149e-4,5.3642312 4.5324492,-1.537e-4 V 14.917346 H 3.0828073 Z m 7.1733677,0.6107316 1.305241,1.6065332 1.672941,2.0633905 -2.977721,1.537e-4 z"
       id="icon-document" />
    <path
       style="color:#000000;fill:#000000;-inkscape-stroke:none"
       d="M 7.56975,12.3725 V 11.56975 H 6.1685 L 6.159,11.5555 7.56975,9.67925 V 9 h -2.527 v 0.80275 h 1.311 L 6.36325,9.817 5,11.6695 v 0.703 z m 1.3585,0 V 9 h -0.931 v 3.3725 z m 1.3965,0 v -1.03075 h 0.38 c 0.779,0 1.2825,-0.38 1.2825,-1.14475 0,-0.6935 -0.38,-1.197 -1.2255,-1.197 h -1.311 v 3.3725 z m 0.27075,-1.80975 h -0.27075 v -0.7695 h 0.27075 c 0.32775,0 0.456,0.17575 0.456,0.38475 0,0.25175 -0.16625,0.38475 -0.456,0.38475 z"
       id="ZIP" />
  </g>
</svg>
