<?xml version="1.0" encoding="UTF-8" standalone="no"?>
<svg width="16px" height="16px" viewBox="0 0 16 16" version="1.1" xmlns="http://www.w3.org/2000/svg" xmlns:xlink="http://www.w3.org/1999/xlink">
  <path d="M 2,0 V 16 H 14.78924 V 5.5619157 L 12.402114,2.6178604 10.275237,0 Z m 1.0828073,1.0828073 6.0905606,-6.149e-4 6.149e-4,5.3642312 4.5324492,-1.537e-4 V 14.917346 H 3.0828073 Z m 7.1733677,0.6107316 1.305241,1.6065332 1.672941,2.0633905 -2.977721,1.537e-4 z"/>
  <path d="m 4.5253906,10.275391 v 0.949218 H 5 11 11.474609 V 10.275391 H 11 5 Z"/>
  <path d="M 4.5253906,12.361328 V 13.3125 H 5 10 10.474609 V 12.361328 H 10 5 Z"/>
  <path d="M 4.5253906,8.0742188 V 9.0253906 H 5 12 12.474609 V 8.0742188 H 12 5 Z"/>
</svg>
