<?xml version="1.0" encoding="utf-8" ?>
<svg xmlns="http://www.w3.org/2000/svg" xmlns:xlink="http://www.w3.org/1999/xlink" width="18" height="17">
	<defs>
		<clipPath id="clip_0">
			<rect x="-28.199219" y="-258" width="717.80005" height="873" clip-rule="evenodd"/>
		</clipPath>
	</defs>
	<g clip-path="url(#clip_0)">
		<path fill="#000" stroke="none" transform="matrix(0.97 0 0 0.97 0.900391 0.98999)" d="M1.6875 6.68571C2.41291 2.88418 5.76152 0 9.77143 0C14.3099 0 18 3.69017 18 8.22856C18 12.767 14.3099 16.4572 9.77143 16.4572C6.78917 16.4572 4.16745 14.868 2.72411 12.4875L3.62411 11.9812C4.88746 14.051 7.16425 15.4286 9.77143 15.4286C13.754 15.4286 16.9714 12.2111 16.9714 8.22856C16.9714 4.24605 13.754 1.02857 9.77143 1.02857C6.31883 1.02857 3.44486 3.44728 2.74018 6.68571L4.11429 6.68571L2.05714 9.25713L0 6.68571L1.6875 6.68571ZM9.25714 4.11429L9.25714 3.6L10.2857 3.6L10.2857 7.97946L12.6643 9.88391L13.0661 10.2053L12.4232 11.0089L12.0214 10.6875L9.45 8.63034L9.25714 8.46963L9.25714 4.11429Z" fill-rule="evenodd"/>
	</g>

</svg>
