<?xml version="1.0" encoding="UTF-8" standalone="no"?>
<svg
   width="16px"
   height="16px"
   viewBox="0 0 16 16"
   version="1.1"
   id="svg14"
   sodipodi:docname="92-in-person.svg"
   inkscape:version="1.1 (c68e22c387, 2021-05-23)"
   xmlns:inkscape="http://www.inkscape.org/namespaces/inkscape"
   xmlns:sodipodi="http://sodipodi.sourceforge.net/DTD/sodipodi-0.dtd"
   xmlns="http://www.w3.org/2000/svg"
   xmlns:svg="http://www.w3.org/2000/svg">
  <defs
     id="defs18" />
  <sodipodi:namedview
     id="namedview16"
     pagecolor="#ffffff"
     bordercolor="#666666"
     borderopacity="1.0"
     inkscape:pageshadow="2"
     inkscape:pageopacity="0.0"
     inkscape:pagecheckerboard="0"
     showgrid="false"
     inkscape:zoom="32.5"
     inkscape:cx="7.9846154"
     inkscape:cy="7.9846154"
     inkscape:window-width="1600"
     inkscape:window-height="837"
     inkscape:window-x="-8"
     inkscape:window-y="-2"
     inkscape:window-maximized="1"
     inkscape:current-layer="svg14" />
  <!-- Generator: Sketch 64 (93537) - https://sketch.com -->
  <title
     id="title2">Icons / InPerson</title>
  <desc
     id="desc4">Created with Sketch.</desc>
  <g
     id="Icons-/-InPerson"
     stroke="none"
     stroke-width="1"
     fill="none"
     fill-rule="evenodd">
    <g
       id="Group"
       transform="translate(0.000000, 3.000000)"
       fill="#000">
      <path
         style="color:#000000;fill:#000000;-inkscape-stroke:none"
         d="m 7.9705126,6.4130844 c 1.4260148,0 2.6472294,0.4342519 3.2502514,1.0581334 0,0 0.113778,0.1213629 0.180149,0.1877333 0.233244,0.2313482 0.362192,0.5632 0.362192,0.9064296 V 10.459781 H 4.17792 V 8.5653807 c 0,-0.3413333 0.1289481,-0.6750814 0.3621926,-0.9064296 C 4.606483,7.5925807 4.7202607,7.4712178 4.7202607,7.4712178 5.323283,6.8473363 6.5463941,6.4130844 7.9705126,6.4130844"
         id="Fill-1" />
      <path
         style="color:#000000;fill:#000000;-inkscape-stroke:none"
         d="m 7.9705126,1.3566104 c 1.3824,0 1.7066667,0.9576296 1.7066667,2.1371259 0,1.1813926 -0.7642074,2.1390222 -1.7066667,2.1390222 -0.9424593,0 -1.7066667,-0.9576296 -1.7066667,-2.1390222 0,-1.1794963 0.3242667,-2.1371259 1.7066667,-2.1371259"
         id="Fill-4" />
      <path
         style="color:#000000;fill:#000000;-inkscape-stroke:none"
         d="M 4.3064889,7.4241896 C 4.3690667,7.3616118 4.4752593,7.2459378 4.4752593,7.2459378 5.0270815,6.6751526 5.9809185,6.2902044 7.0750815,6.1498785 7.0637037,6.1366044 7.0428444,6.1138489 7.0428444,6.1138489 6.4398222,5.4899674 5.2167111,5.0576118 3.7925926,5.0576118 c -1.4260148,0 -2.6472296,0.4323556 -3.25214816,1.0562371 0,0 -0.11377777,0.1232592 -0.18014814,0.1896296 C 0.12705185,6.5348267 0,6.8685748 0,7.2099082 V 9.1024118 H 3.8456889 V 8.56576 c 0,-0.4361481 0.1687704,-0.851437 0.4608,-1.1415704"
         id="Fill-6" />
      <path
         style="color:#000000;fill:#000000;-inkscape-stroke:none"
         d="m 3.7918341,4.2761481 c 0.9424592,0 1.7066666,-0.9576296 1.7066666,-2.1371259 C 5.4985007,0.95762963 5.1742341,0 3.7918341,0 c -1.3824,0 -1.7066667,0.95762963 -1.7066667,2.1390222 0,1.1794963 0.7642074,2.1371259 1.7066667,2.1371259"
         id="Fill-8" />
      <path
         style="color:#000000;fill:#000000;-inkscape-stroke:none"
         d="m 15.941784,7.2093393 c 0,-0.3432297 -0.127052,-0.6750815 -0.360297,-0.9064297 C 15.513221,6.2365393 15.401339,6.11328 15.401339,6.11328 14.796421,5.4893985 13.575206,5.057043 12.149191,5.057043 c -1.424118,0 -2.6472295,0.4323555 -3.2502517,1.056237 0,0 -0.020859,0.024652 -0.032237,0.03603 1.094163,0.1422222 2.0479997,0.5252741 2.5941337,1.0903704 0.0057,0.00759 0.109985,0.121363 0.174459,0.1820444 0.292029,0.2920297 0.458903,0.7073186 0.458903,1.1434667 V 9.101843 h 3.847586 z"
         id="Fill-11" />
      <path
         style="color:#000000;fill:#000000;-inkscape-stroke:none"
         d="m 12.149191,4.2761481 c 0.942459,0 1.706667,-0.9576296 1.706667,-2.1371259 C 13.855858,0.95762963 13.531591,0 12.149191,0 c -1.3824,0 -1.70477,0.95762963 -1.70477,2.1390222 0,1.1794963 0.762311,2.1371259 1.70477,2.1371259"
         id="Fill-14" />
    </g>
  </g>
</svg>
