<?xml version="1.0" encoding="UTF-8" standalone="no"?>
<svg
   width="16px"
   height="16px"
   viewBox="0 0 16 16"
   version="1.1"
   id="svg8"
   sodipodi:docname="79-instagram-simple.svg"
   inkscape:version="1.1 (c68e22c387, 2021-05-23)"
   xmlns:inkscape="http://www.inkscape.org/namespaces/inkscape"
   xmlns:sodipodi="http://sodipodi.sourceforge.net/DTD/sodipodi-0.dtd"
   xmlns="http://www.w3.org/2000/svg"
   xmlns:svg="http://www.w3.org/2000/svg">
  <defs
     id="defs12" />
  <sodipodi:namedview
     id="namedview10"
     pagecolor="#ffffff"
     bordercolor="#666666"
     borderopacity="1.0"
     inkscape:pageshadow="2"
     inkscape:pageopacity="0.0"
     inkscape:pagecheckerboard="0"
     showgrid="false"
     inkscape:zoom="32.5"
     inkscape:cx="7.9846154"
     inkscape:cy="7.9846154"
     inkscape:window-width="1600"
     inkscape:window-height="837"
     inkscape:window-x="-8"
     inkscape:window-y="-2"
     inkscape:window-maximized="1"
     inkscape:current-layer="svg8" />
  <!-- Generator: Sketch 64 (93537) - https://sketch.com -->
  <title
     id="title2">Icons / Social - Instagram</title>
  <desc
     id="desc4">Created with Sketch.</desc>
  <g
     id="Icons-/-Social---Instagram"
     stroke="none"
     stroke-width="1"
     fill="none"
     fill-rule="evenodd">
    <path
       style="color:#000000;fill:#000000;-inkscape-stroke:none"
       d="m 7.9999841,1.4414706 c 2.1361029,0 2.3891029,0.00813 3.2326709,0.046618 0.779992,0.035599 1.203586,0.1659254 1.485516,0.275452 0.373388,0.1451251 0.639916,0.3185132 0.919846,0.5984427 0.279929,0.2799296 0.453317,0.5464582 0.598411,0.9198458 0.109558,0.2819302 0.239885,0.7055242 0.275484,1.4854845 0.03849,0.8435995 0.04662,1.0965999 0.04662,3.2327024 0,2.1361021 -0.0081,2.3891031 -0.04662,3.2326711 -0.0356,0.779992 -0.165926,1.203586 -0.275484,1.485516 -0.145094,0.373387 -0.318482,0.639916 -0.598411,0.919846 -0.27993,0.279929 -0.546458,0.453317 -0.919846,0.598411 -0.28193,0.109558 -0.705524,0.239885 -1.485516,0.275483 -0.843441,0.03849 -1.096441,0.04662 -3.2326709,0.04662 -2.1362295,0 -2.3892299,-0.0081 -3.2326706,-0.04662 C 3.9873214,14.476345 3.5637275,14.346018 3.281829,14.23646 2.9084096,14.091366 2.6418811,13.917978 2.3619515,13.638049 2.0820219,13.358119 1.9086339,13.09159 1.7635405,12.718203 1.6539821,12.436273 1.5236553,12.012679 1.4880567,11.232718 c -0.038488,-0.843599 -0.046618,-1.0966 -0.046618,-3.2327021 0,-2.1361025 0.00813,-2.3891029 0.046618,-3.2326707 C 1.5236553,3.9873532 1.6539821,3.5637592 1.7635405,3.281829 1.9086339,2.9084414 2.0820219,2.6419128 2.3619515,2.3619832 2.6418811,2.0820537 2.9084096,1.9086656 3.281829,1.7635405 3.5637275,1.6540139 3.9873214,1.523687 4.7672817,1.4880885 c 0.8435995,-0.038488 1.0966,-0.046618 3.2327024,-0.046618 M 8.9394591,8.6241199e-4 C 10.279615,0.00389541 10.587314,0.01569807 11.298358,0.04814217 c 0.851539,0.03886941 1.433055,0.17408667 1.941946,0.37186335 0.526071,0.20444545 0.972212,0.47799206 1.416955,0.92273558 0.444743,0.4447434 0.71829,0.8908842 0.922736,1.4169549 0.197776,0.5088907 0.332993,1.0904075 0.371863,1.941946 C 15.990791,5.5548953 16,5.8273304 16,8.0000159 c 0,2.1726851 -0.0092,2.4451211 -0.04814,3.2983741 -0.03887,0.851538 -0.174087,1.433055 -0.371863,1.941946 -0.204446,0.526071 -0.477993,0.972211 -0.922736,1.416955 -0.444743,0.444743 -0.890884,0.71829 -1.416955,0.922735 -0.508891,0.197777 -1.090407,0.332994 -1.941946,0.371864 C 10.445105,15.990823 10.17267,16 7.9999841,16 5.8272987,16 5.5548953,15.990823 4.7016102,15.95189 3.8500718,15.91302 3.268555,15.777803 2.7596643,15.580026 2.2335935,15.375581 1.7874528,15.102034 1.3427093,14.657291 0.89796583,14.212547 0.62441921,13.766375 0.41997376,13.240336 0.22219708,12.731445 0.08697982,12.149928 0.04811042,11.29839 0.01566632,10.587345 0.00388571,10.279647 8.6005969e-4,8.9394908 V 7.0605409 C 0.00388571,5.7203849 0.01566632,5.4126864 0.04811042,4.701642 0.08697982,3.8501035 0.22219708,3.2685867 0.41997376,2.759696 0.62441921,2.2336253 0.89796583,1.7874845 1.3427093,1.3427411 1.7874528,0.89799758 2.2335935,0.62445097 2.7596643,0.42000552 3.268555,0.22222884 3.8500718,0.08701158 4.7016102,0.04814217 5.4126811,0.01569807 5.720362,0.00389541 7.0605114,8.6241199e-4 Z M 8.015873,3.9047619 c -2.2704939,0 -4.1111111,1.8406172 -4.1111111,4.1111111 0,2.270494 1.8406172,4.111111 4.1111111,4.111111 2.270494,0 4.111111,-1.840617 4.111111,-4.111111 0,-2.2704939 -1.840617,-4.1111111 -4.111111,-4.1111111 z m 0,1.4424879 c 1.4738221,0 2.668623,1.1948011 2.668623,2.6686232 0,1.4738221 -1.1948009,2.668623 -2.668623,2.668623 -1.4738221,0 -2.6686232,-1.1948009 -2.6686232,-2.668623 0,-1.4738221 1.1948011,-2.6686232 2.6686232,-2.6686232 z m 4.238111,-2.585345 c -0.52599,0 -0.952397,0.4263748 -0.952397,0.9523652 0,0.5259903 0.426407,0.9523967 0.952397,0.9523967 0.52599,0 0.952365,-0.4264064 0.952365,-0.9523967 0,-0.5259904 -0.426375,-0.9523652 -0.952365,-0.9523652 z"
       id="Shape-Copy" />
  </g>
</svg>
