<?xml version="1.0" encoding="UTF-8"?>
<svg width="40px" height="40px" version="1.1" viewBox="0 0 40 40" xmlns="http://www.w3.org/2000/svg">
 <path d="m20 0a20 20 0 0 0-20 20 20 20 0 0 0 20 20 20 20 0 0 0 20-20 20 20 0 0 0-20-20zm-5.9043 13h12.635c0.6054 0 1.0977 0.47796 1.0977 1.0684v12.785c0 0.5895-0.49196 1.0684-1.0977 1.0684h-12.635c-0.6048 0-1.0957-0.47856-1.0957-1.0684v-12.785c0-0.5901 0.4909-1.0684 1.0957-1.0684zm2.1719 2c-0.7659 0-1.2676 0.50316-1.2676 1.1641 0 0.6465 0.48513 1.1641 1.2363 1.1641h0.015625c0.7806 0 1.2676-0.51756 1.2676-1.1641-0.015-0.6609-0.48575-1.1641-1.252-1.1641zm6.9902 3c-1.1889 0-1.72 0.65428-2.0176 1.1133v-0.95508h-2.2402c0.0294 0.6315 0 6.7383 0 6.7383h2.2402v-3.7617c0-0.2016 0.013166-0.40318 0.072266-0.54688 0.1623-0.4026 0.53179-0.82031 1.1504-0.82031 0.8103 0 1.1328 0.61804 1.1328 1.5234v3.6055h2.2402v-3.8633c0-2.0697-1.1048-3.0332-2.5781-3.0332zm-8.2578 0.15039v6.7383h2.2402v-6.7383h-2.2402z" fill-rule="evenodd"/>
</svg>
