<?xml version="1.0" encoding="UTF-8" standalone="no"?>
<svg
   width="16px"
   height="16px"
   viewBox="0 0 16 16"
   version="1.1"
   id="svg8"
   sodipodi:docname="80-linkedin-simple-.svg"
   inkscape:version="1.1 (c68e22c387, 2021-05-23)"
   xmlns:inkscape="http://www.inkscape.org/namespaces/inkscape"
   xmlns:sodipodi="http://sodipodi.sourceforge.net/DTD/sodipodi-0.dtd"
   xmlns="http://www.w3.org/2000/svg"
   xmlns:svg="http://www.w3.org/2000/svg">
  <defs
     id="defs12" />
  <sodipodi:namedview
     id="namedview10"
     pagecolor="#ffffff"
     bordercolor="#666666"
     borderopacity="1.0"
     inkscape:pageshadow="2"
     inkscape:pageopacity="0.0"
     inkscape:pagecheckerboard="0"
     showgrid="false"
     inkscape:zoom="32.5"
     inkscape:cx="7.9846154"
     inkscape:cy="7.9846154"
     inkscape:window-width="1600"
     inkscape:window-height="837"
     inkscape:window-x="-8"
     inkscape:window-y="-2"
     inkscape:window-maximized="1"
     inkscape:current-layer="svg8" />
  <!-- Generator: Sketch 64 (93537) - https://sketch.com -->
  <title
     id="title2">Icons / Social - LinkedIn</title>
  <desc
     id="desc4">Created with Sketch.</desc>
  <g
     id="Icons-/-Social---LinkedIn"
     stroke="none"
     stroke-width="1"
     fill="none"
     fill-rule="evenodd">
    <path
       style="color:#000000;fill:#000000;-inkscape-stroke:none"
       d="m 13.944455,13.643182 h -2.373 V 9.9301818 c 0,-0.8855 -0.015,-2.025 -1.2325,-2.025 -1.2350005,0 -1.4235004,0.9655 -1.4235004,1.9615 V 13.643182 H 6.5454545 V 6.0076818 h 2.2745001 v 1.0435 h 0.0325 c 0.3165001,-0.6 1.0910001,-1.233 2.2455005,-1.233 2.4025,0 2.8465,1.581 2.8465,3.6375 z M 3.5583182,4.9343182 c -0.762,0 -1.3765,-0.6165 -1.3765,-1.3765 0,-0.7595 0.6145,-1.376 1.3765,-1.376 0.759,0 1.3755,0.6165 1.3755,1.376 0,0.76 -0.6165,1.3765 -1.3755,1.3765 z m -1.3765,8.5193638 h 2.3755 V 5.8181818 h -2.3755 z M 0.667,0 C 0.299,0 0,0.299 0,0.667 V 15.3335 C 0,15.7015 0.299,16 0.667,16 H 15.3335 C 15.7015,16 16,15.7015 16,15.3335 V 0.667 C 16,0.299 15.7015,0 15.3335,0 Z"
       id="Fill-6-Copy" />
  </g>
</svg>
