<?xml version="1.0" encoding="UTF-8"?>
<svg width="14px" height="14px" version="1.1" viewBox="0 0 14 14" xmlns="http://www.w3.org/2000/svg">
 <path id="Combined-Shape" d="m5.8411 11.542-1.1468-0.50535 3.6862-8.4947 1.1468 0.50535zm-1.8957-4.127c-1.2989 0-2.3521-0.96256-2.3521-2.4064 0-1.3115 0.94787-2.3824 2.3521-2.3824 1.3106 0 2.3638 0.95054 2.3638 2.3824 0 1.3235-0.94787 2.4064-2.3638 2.4064zm1.1702-2.3944c0 0.70989-0.46808 1.2754-1.1585 1.2754-0.63192 0-1.1468-0.51738-1.1468-1.2754 0-0.69786 0.46809-1.2634 1.1468-1.2634 0.64362 0 1.1585 0.50535 1.1585 1.2634zm5.1138 6.3409c-1.2872 0-2.3521-0.96257-2.3521-2.3944 0-1.3115 0.94787-2.3944 2.3521-2.3944 1.3106 0 2.3638 0.96257 2.3638 2.3944 0 1.3115-0.9362 2.3944-2.3638 2.3944zm1.1702-2.3824c0 0.69786-0.46808 1.2634-1.1585 1.2634-0.63191 0-1.1468-0.50534-1.1468-1.2634 0-0.69787 0.45639-1.2634 1.1468-1.2634 0.64362 0 1.1585 0.50534 1.1585 1.2634z"/>
</svg>
