<?xml version="1.0"?>
<svg width="16" height="16" xmlns="http://www.w3.org/2000/svg" xmlns:svg="http://www.w3.org/2000/svg">
 <g class="layer">
  <path fill="#000000" d="M 8.5078125,0.86914062 A 0.50083746,0.50083746 0 0 0 8.1699219,1.015625 L 4.3789062,4.8007812 H 0.859375 a 0.50083746,0.50083746 0 0 0 -0.5,0.5 v 5.0605468 a 0.50083746,0.50083746 0 0 0 0.5,0.5 h 3.4628906 l 3.8476563,3.841797 A 0.50083746,0.50083746 0 0 0 9.0234375,14.349609 V 1.3691406 A 0.50083746,0.50083746 0 0 0 8.5078125,0.86914062 Z M 8.0234375,2.5742188 V 13.144531 L 4.8828125,10.007812 A 0.50083746,0.50083746 0 0 0 4.5292969,9.8613281 H 1.359375 V 5.8007812 H 4.5859375 A 0.50083746,0.50083746 0 0 0 4.9394531,5.6542969 Z m 0.470696,-1.2050782 -3.9375,3.9316406 H 0.83007097 V 10.361328 H 4.4999929 l 3.9941406,3.988281 z" />
  <path fill="#000000" d="m 10.225427,5.3253981 c -0.2681003,0.2681005 -0.2681006,0.7207439 0,0.9888441 l 3.959522,3.9595218 c 0.2681,0.268101 0.722125,0.269482 0.990226,0.0014 0.2681,-0.268101 0.266719,-0.722126 -0.0014,-0.9902262 L 11.214271,5.3253976 c -0.2681,-0.2681003 -0.720743,-0.2681 -0.988844,5e-7 z m 4.85031,-3e-7 c -0.2681,-0.2681002 -0.723506,-0.2681007 -0.991606,-1e-7 l -3.959522,3.9595217 c -0.2681008,0.2681006 -0.2667193,0.7221256 0.0014,0.9902256 0.268101,0.268101 0.720744,0.268101 0.988845,0 l 3.959521,-3.9595214 c 0.268101,-0.2681005 0.269482,-0.7221248 0.0014,-0.9902258 z"/>
 </g>
</svg>