<?xml version="1.0" encoding="UTF-8" standalone="no"?>
<svg
   width="16px"
   height="16px"
   viewBox="0 0 16 16"
   version="1.1"
   id="svg12"
   sodipodi:docname="93-podcast.svg"
   inkscape:version="1.1 (c68e22c387, 2021-05-23)"
   xmlns:inkscape="http://www.inkscape.org/namespaces/inkscape"
   xmlns:sodipodi="http://sodipodi.sourceforge.net/DTD/sodipodi-0.dtd"
   xmlns="http://www.w3.org/2000/svg"
   xmlns:svg="http://www.w3.org/2000/svg">
  <defs
     id="defs16" />
  <sodipodi:namedview
     id="namedview14"
     pagecolor="#ffffff"
     bordercolor="#666666"
     borderopacity="1.0"
     inkscape:pageshadow="2"
     inkscape:pageopacity="0.0"
     inkscape:pagecheckerboard="0"
     showgrid="false"
     inkscape:zoom="32.5"
     inkscape:cx="7.9846154"
     inkscape:cy="7.9846154"
     inkscape:window-width="1600"
     inkscape:window-height="837"
     inkscape:window-x="-8"
     inkscape:window-y="-2"
     inkscape:window-maximized="1"
     inkscape:current-layer="svg12" />
  <!-- Generator: Sketch 64 (93537) - https://sketch.com -->
  <title
     id="title2">Icons / Podcast</title>
  <desc
     id="desc4">Created with Sketch.</desc>
  <g
     id="Icons-/-Podcast"
     stroke="none"
     stroke-width="1"
     fill="none"
     fill-rule="evenodd">
    <g
       id="Group"
       transform="translate(1.500000, 1.000000)">
      <path
         style="color:#000000;fill:#000000;-inkscape-stroke:none"
         d="m 6.3984375,-0.515625 c -3.8123812,0 -6.9140625,3.1016893 -6.9140625,6.9140625 0,1.6546223 0.58506475,3.1788311 1.5566406,4.3691405 l 0.796875,-0.65039 C 1.0101819,9.1031344 0.515625,7.8112345 0.515625,6.3984375 c 0,-3.2557269 2.6270936,-5.8828125 5.8828125,-5.8828125 3.2558078,0 5.8847655,2.6270856 5.8847655,5.8828125 0,1.412797 -0.49651,2.7046969 -1.324219,3.7187505 l 0.798829,0.65039 C 12.729388,9.5772686 13.3125,8.0530598 13.3125,6.3984375 c 0,-3.8123732 -3.101605,-6.9140625 -6.9140625,-6.9140625 z"
         id="Stroke-4" />
      <path
         style="color:#000000;fill:#000000;-inkscape-stroke:none"
         d="m 6.3984375,1.9785156 c -2.5018534,0 -4.5371094,2.035256 -4.5371094,4.5371094 0,1.0223196 0.3400685,1.9693956 0.9121094,2.7285156 L 3.3886719,8.7792969 C 2.9135746,8.1488247 2.6328125,7.3672443 2.6328125,6.515625 2.6328125,4.4312638 4.3140763,2.75 6.3984375,2.75 c 2.0843612,0 3.7656255,1.6812637 3.7656255,3.765625 0,0.8516193 -0.2808311,1.6331913 -0.7558599,2.2636719 L 10.025391,9.2441406 C 10.597335,8.485029 10.9375,7.5379446 10.9375,6.515625 10.9375,4.0137716 8.9002909,1.9785156 6.3984375,1.9785156 Z"
         id="Stroke-6" />
      <path
         style="color:#000000;fill:#000000;-inkscape-stroke:none"
         d="m 7.9965986,5.7127096 c 0,0.8823392 -0.7153144,1.5976536 -1.5976536,1.5976536 -0.8823392,0 -1.5975712,-0.7153144 -1.5975712,-1.5976536 0,-0.8823392 0.715232,-1.5976536 1.5975712,-1.5976536 0.8823392,0 1.5976536,0.7153144 1.5976536,1.5976536"
         id="Fill-8" />
      <path
         style="color:#000000;fill:#000000;-inkscape-stroke:none"
         d="M 6.5766077,14.966015 H 6.2213813 c -0.5416152,0 -0.9807248,-0.538401 -0.9807248,-1.202545 L 4.7949549,9.2887378 c 0,-0.664144 0.4391096,-1.2025456 0.9807248,-1.2025456 h 1.2466296 c 0.5416152,0 0.9807248,0.5384016 0.9807248,1.2025456 L 7.5573325,13.76347 c 0,0.664144 -0.4391096,1.202545 -0.9807248,1.202545"
         id="Fill-1" />
    </g>
  </g>
</svg>
