<?xml version="1.0" encoding="UTF-8"?>
<svg width="14" height="14" version="1.1" xmlns="http://www.w3.org/2000/svg">
 <path d="m7 14c3.866 0 7-3.134 7-7 0-3.866-3.134-7-7-7-3.866 0-7 3.134-7 7 0 3.866 3.134 7 7 7zm-0.824-5.2027-0.00933-0.46666c-0.00817-0.5148 0.3199-0.86505 0.65225-1.2199 0.04726-0.05045 0.0946-0.101 0.14108-0.15212 0.29867-0.308 0.59733-0.644 0.59733-1.064 0-0.46667-0.308-0.728-0.74666-0.728-0.35467 0-0.70934 0.18666-0.94267 0.504l-0.868-0.812c0.42-0.52267 1.1387-0.85867 1.9133-0.85867 1.0453 0 1.9693 0.59733 1.9693 1.82 0 0.728-0.41067 1.2133-0.82134 1.6147-0.38266 0.35466-0.74666 0.63466-0.77466 0.97066l-0.028 0.392zm-0.196 1.4934c0 0.4106 0.336 0.7373 0.756 0.7373 0.41067 0 0.756-0.3267 0.756-0.7373 0-0.4107-0.34533-0.7467-0.756-0.7467-0.42 0-0.756 0.336-0.756 0.7467z" fill-rule="evenodd"/>
</svg>
