<?xml version="1.0" encoding="UTF-8"?>
<svg width="20px" height="20px" version="1.1" viewBox="0 0 20 20" xmlns="http://www.w3.org/2000/svg">
 <path d="m9.6484-0.056641c-3.1022 0.11013-6.1546 1.5719-7.8984 4.3359-3.8659 5.2612-0.99353 13.513 5.2988 15.223 6.0952 2.1243 13.022-2.9454 12.928-9.3906l0.02148-0.03711v-0.14258c1.3e-5 -0.00528-2e-3 -0.010342-2e-3 -0.015625-7.4e-5 -0.00199 7.5e-5 -0.00386 0-0.00586l-2e-3 0.00391c0.00169-2.236-0.76532-4.4505-2.1542-6.2012-1.9342-2.6382-5.0865-3.8798-8.1914-3.7695zm0.039062 1.1094c2.7732-0.09846 5.5879 0.98842 7.2832 3.3047l0.0078 0.00977 0.0059 0.00781c1.2399 1.5583 1.9332 3.5555 1.9297 5.5488-1e-6 0.00204 2e-3 0.00382 2e-3 0.00586v0.021484c0.21732 5.7444-6.1281 10.423-11.529 8.5254l-0.039062-0.0118c-5.5312-1.4893-8.1266-8.9486-4.7148-13.564l0.011719-0.017578 0.011719-0.015625c1.5276-2.4308 4.258-3.716 7.0312-3.8145zm3.6016 4.9922c-0.95842-0.15065-1.5971 1.1727-0.88281 1.832 0.6135 0.70645 1.9061 0.18101 1.8555-0.75391 0.0101-0.54213-0.43371-1.0341-0.97266-1.0781zm-6.4746 0.00977c-0.95843-0.15066-1.5971 1.1746-0.88281 1.834 0.6135 0.70645 1.9061 0.17906 1.8555-0.75586 0.010098-0.54213-0.43371-1.0341-0.97266-1.0781zm3.2441 5.7266c-1.8963 0.02708-3.7724 0.95588-4.8477 2.5898-0.012121 0.01842-0.027147 0.03414-0.039063 0.05273l0.00977 0.0059c-0.070655 0.11046-0.10653 0.24255-0.056641 0.39453 0.10643 0.45218 0.70344 0.47466 0.95508 0.18164l0.00391 2e-3c1.2958-2.0225 4.2677-2.7459 6.3437-1.5469l0.0059 2e-3 0.0059 0.0039c0.61052 0.33408 1.147 0.80555 1.5625 1.3652 0.01 0.01437 0.02187 0.02622 0.0332 0.03906 0.0019 0.0021 4e-3 0.0038 0.0059 0.0059 0.29166 0.31852 0.97577 0.15939 0.95508-0.35156 1.86e-4 -0.0991-0.03026-0.1981-0.08399-0.28125l0.0039-2e-3c-0.5141-0.71061-1.1848-1.2993-1.9531-1.7207-0.65143-0.37521-1.3598-0.60438-2.084-0.69531-0.27232-0.0342-0.54636-0.04883-0.82031-0.04492z"/>
</svg>
