<?xml version="1.0" encoding="UTF-8"?>
<svg width="16px" height="16px" version="1.1" viewBox="0 0 16 16" xmlns="http://www.w3.org/2000/svg">
 <g fill-rule="evenodd">
  <polygon points="4.2508 4.25 4.2508 0.5 0.50083 0.5 0.50083 4.25"/>
  <polygon points="4.2508 9.875 4.2508 6.125 0.50083 6.125 0.50083 9.875"/>
  <polygon points="4.2508 15.5 4.2508 11.75 0.50083 11.75 0.50083 15.5"/>
  <polygon points="9.8758 4.25 9.8758 0.5 6.1258 0.5 6.1258 4.25"/>
  <polygon points="9.8758 9.875 9.8758 6.125 6.1258 6.125 6.1258 9.875"/>
  <polygon points="9.8758 15.5 9.8758 11.75 6.1258 11.75 6.1258 15.5"/>
  <polygon points="15.501 4.25 15.501 0.5 11.751 0.5 11.751 4.25"/>
  <polygon points="15.501 9.875 15.501 6.125 11.751 6.125 11.751 9.875"/>
  <polygon points="15.501 15.5 15.501 11.75 11.751 11.75 11.751 15.5"/>
 </g>
</svg>
