<?xml version="1.0" encoding="UTF-8"?>
<svg width="16px" height="16px" viewBox="0 0 16 16" version="1.1" xmlns="http://www.w3.org/2000/svg" xmlns:xlink="http://www.w3.org/1999/xlink">
  <g id="timer">
    <path d="M7.58570659,9.59232693e-14 C7.3775693,9.59232693e-14 7.2092881,0.168514283 7.2092881,0.376418489 L7.2092881,0.376418489 L7.2092881,3.44487013 C7.2092881,3.65254126 7.3775693,3.82105555 7.58570659,3.82105555 L7.58570659,3.82105555 L8.45158565,3.82105555 C8.65948985,3.82105555 8.82800414,3.65254126 8.82800414,3.44487013 L8.82800414,3.44487013 L8.82800414,1.69376666 C11.9833933,2.09512433 14.3999301,4.79951054 14.3999301,8.01876266 L14.3999301,8.01876266 C14.3999301,11.537518 11.537285,14.4001632 8.01876266,14.4001632 L8.01876266,14.4001632 C4.50024036,14.4001632 1.63759523,11.537518 1.63759523,8.01876266 L1.63759523,8.01876266 C1.63759523,6.31077833 2.30023162,4.70767841 3.5036054,3.50407155 L3.5036054,3.50407155 C3.65090973,3.35700031 3.65090973,3.11856308 3.5036054,2.97149184 L3.5036054,2.97149184 L2.88245663,2.35057614 C2.80903754,2.27692397 2.71254388,2.23986482 2.6162833,2.23986482 L2.6162833,2.23986482 C2.52095503,2.23986482 2.4251606,2.27622474 2.35197459,2.34847845 L2.35197459,2.34847845 C0.835112969,3.84482934 -1.687539e-14,5.85185077 -1.687539e-14,8.00011654 L-1.687539e-14,8.00011654 C-1.687539e-14,12.4110886 3.58867831,16 7.99988346,16 L7.99988346,16 C12.4113217,16 16,12.4110886 16,8.00011654 L16,8.00011654 C16,3.80404096 12.7558087,0.324442437 8.59213076,0.0270368698 L8.59213076,0.0270368698 C8.54877853,0.00955613501 8.50146401,9.59232693e-14 8.45158565,9.59232693e-14 L8.45158565,9.59232693e-14 L7.58570659,9.59232693e-14 Z M4.34547759,4.34547759 C4.22311244,4.46784273 4.20003787,4.65780005 4.28907308,4.8058036 L4.28907308,4.8058036 C4.59813247,5.31973721 4.87782423,5.7891532 5.13024604,6.21311929 L5.13024604,6.21311929 C6.04180809,7.74373243 6.59210162,8.66811368 6.96199397,9.03800603 L6.96199397,9.03800603 C7.24238495,9.31863009 7.61111192,9.47315979 7.99988346,9.47315979 L7.99988346,9.47315979 C8.388655,9.47315979 8.75714889,9.31863009 9.03147989,9.04383294 L9.03147989,9.04383294 C9.31187088,8.77602809 9.46849826,8.41359418 9.47292671,8.02342418 L9.47292671,8.02342418 C9.47735516,7.62369805 9.32259239,7.24704648 9.03194604,6.95616706 L9.03194604,6.95616706 C8.64806911,6.5893047 7.64863723,5.9912305 5.99309511,5.0008886 L5.99309511,5.0008886 C5.62809737,4.78272903 5.23233353,4.54569027 4.80557053,4.28907308 L4.80557053,4.28907308 C4.7454368,4.25294623 4.67854385,4.2354655 4.61165091,4.2354655 L4.61165091,4.2354655 C4.51422495,4.2354655 4.41796437,4.27299081 4.34547759,4.34547759 L4.34547759,4.34547759 Z"></path>
  </g>
</svg>
