<?xml version="1.0" encoding="UTF-8" standalone="no"?>
<svg
   width="16px"
   height="16px"
   viewBox="0 0 16 16"
   version="1.1"
   id="svg8"
   sodipodi:docname="81-twitter-simple.svg"
   inkscape:version="1.1 (c68e22c387, 2021-05-23)"
   xmlns:inkscape="http://www.inkscape.org/namespaces/inkscape"
   xmlns:sodipodi="http://sodipodi.sourceforge.net/DTD/sodipodi-0.dtd"
   xmlns="http://www.w3.org/2000/svg"
   xmlns:svg="http://www.w3.org/2000/svg">
  <defs
     id="defs12" />
  <sodipodi:namedview
     id="namedview10"
     pagecolor="#ffffff"
     bordercolor="#666666"
     borderopacity="1.0"
     inkscape:pageshadow="2"
     inkscape:pageopacity="0.0"
     inkscape:pagecheckerboard="0"
     showgrid="false"
     inkscape:zoom="32.5"
     inkscape:cx="7.9846154"
     inkscape:cy="7.9846154"
     inkscape:window-width="1600"
     inkscape:window-height="837"
     inkscape:window-x="-8"
     inkscape:window-y="-2"
     inkscape:window-maximized="1"
     inkscape:current-layer="svg8" />
  <!-- Generator: Sketch 64 (93537) - https://sketch.com -->
  <title
     id="title2">Icons / Social - Twitter</title>
  <desc
     id="desc4">Created with Sketch.</desc>
  <g
     id="Icons-/-Social---Twitter"
     stroke="none"
     stroke-width="1"
     fill="none"
     fill-rule="evenodd">
    <path
       style="color:#000000;fill:#000000;-inkscape-stroke:none"
       d="M 16,3.0395 C 15.4115,3.3005 14.779,3.477 14.1145,3.5565 14.7925,3.15 15.313,2.507 15.558,1.74 14.924,2.1165 14.221,2.3895 13.4735,2.537 12.875,1.899 12.0215,1.5 11.0775,1.5 c -1.813,0 -3.283,1.47 -3.283,3.2825 0,0.2575 0.029,0.508 0.0855,0.748 C 5.1515,5.394 2.733,4.087 1.114,2.101 0.8315,2.586 0.6695,3.15 0.6695,3.7515 0.6695,4.89 1.249,5.895 2.1295,6.4835 1.5915,6.4665 1.0855,6.319 0.643,6.073 c -5e-4,0.0135 -5e-4,0.0275 -5e-4,0.041 0,1.591 1.1315,2.9175 2.6335,3.219 C 3,9.408 2.7105,9.448 2.411,9.448 2.1995,9.448 1.994,9.4275 1.7935,9.3895 c 0.4175,1.304 1.63,2.253 3.0665,2.2795 -1.1235,0.8805 -2.539,1.405 -4.077,1.405 -0.265,0 -0.526,-0.0155 -0.783,-0.0455 1.4525,0.931 3.178,1.4745 5.032,1.4745 6.038,0 9.3395,-5.002 9.3395,-9.3395 0,-0.1425 -0.003,-0.284 -0.0095,-0.425 C 15.0035,4.276 15.56,3.6975 16,3.0395"
       id="Fill-1-Copy" />
  </g>
</svg>
