<?xml version="1.0" encoding="UTF-8"?>
<svg width="14px" height="16px" version="1.1" viewBox="0 0 14 16" xmlns="http://www.w3.org/2000/svg">
 <path d="m12.954 10.886c-0.1175-0.10917-0.23833-0.2125-0.3625-0.31h0.04667c-1.0633-1.03-3.21-1.7425-5.7158-1.7425-2.505 0-4.6517 0.7125-5.715 1.7425h0.046667c-0.125 0.0975-0.24583 0.20167-0.36333 0.31083-0.40917 0.38167-0.635 0.92917-0.635 1.4933l8.3333e-4 3.12h13.332v-3.12c0-0.565-0.22583-1.1125-0.635-1.4942" fill-rule="evenodd"/>
 <path d="m6.9226 7.5463c1.6567 0 3-1.5775 3-3.5242 0-1.945-0.56833-3.5225-3-3.5225-2.4317 0-3 1.5775-3 3.5225 0 1.9467 1.3433 3.5242 3 3.5242" fill-rule="evenodd"/>
</svg>
