<?xml version="1.0" encoding="UTF-8"?>
<svg width="14" height="12" version="1.1" xmlns="http://www.w3.org/2000/svg">
 <path d="m4.699 0h8.602c0.386 0 0.699 0.32396 0.699 0.72348v6.8342c0 0.39848-0.313 0.72245-0.699 0.72245h-3.301v2.9964c0 0.3995-0.313 0.7235-0.699 0.7235h-8.602c-0.386 0-0.699-0.324-0.699-0.7235v-6.8332c0-0.39951 0.313-0.72347 0.699-0.72347h3.301v-2.9964c0-0.39952 0.313-0.72348 0.699-0.72348zm0.551 6.9864h7.5v-5.6926h-7.5zm3.5 3.7198h-7.5v-5.6926h2.75v2.5441c0 0.39848 0.313 0.72244 0.699 0.72244h4.051z" fill-rule="evenodd"/>
</svg>
