<?xml version="1.0" encoding="UTF-8"?>
<svg width="40" height="40" version="1.1" xmlns="http://www.w3.org/2000/svg">
 <path d="m20.086 0.1875c-10.98 0-19.9 8.9601-19.9 19.982 0 11.023 8.9196 19.982 19.9 19.982 10.98 0 19.898-8.9601 19.898-19.982 0-11.023-8.9176-19.982-19.898-19.982zm0 1.8984c9.95 0 17.998 8.0829 17.998 18.084 0 10-8.0485 18.084-17.998 18.084-9.95 0-18-8.0829-18-18.084 0-10 8.0505-18.084 18-18.084z" color="#000000" color-rendering="auto" dominant-baseline="auto" image-rendering="auto" shape-rendering="auto" solid-color="#000000" style="font-feature-settings:normal;font-variant-alternates:normal;font-variant-caps:normal;font-variant-ligatures:normal;font-variant-numeric:normal;font-variant-position:normal;isolation:auto;mix-blend-mode:normal;shape-padding:0;text-decoration-color:#000000;text-decoration-line:none;text-decoration-style:solid;text-indent:0;text-orientation:mixed;text-transform:none;white-space:normal"/>
 <path d="m27.814 13.418c0.8605 0.22999 1.5381 0.90777 1.7681 1.7681 0.418 1.5599 0.418 4.814 0.418 4.814s0 3.2543-0.418 4.814c-0.23 0.8603-0.9076 1.5383-1.7681 1.7681-1.5597 0.418-7.814 0.418-7.814 0.418s-6.2541 0-7.8138-0.418c-0.86051-0.2298-1.5381-0.9078-1.7681-1.7681-0.41799-1.5597-0.41799-4.814-0.41799-4.814s0-3.2541 0.41799-4.814c0.22999-0.86036 0.90761-1.5381 1.7681-1.7681 1.5597-0.41783 7.8138-0.41783 7.8138-0.41783s6.2543 0 7.814 0.41783zm-9.9988 3.4897 5.1959 3.0002-5.1959 2.9999z" fill-rule="evenodd"/>
</svg>
