<?xml version="1.0" encoding="UTF-8"?>
<svg width="6" height="11" version="1.1" xmlns="http://www.w3.org/2000/svg">
 <path d="m6 7.2188c0 1.3136-0.86762 2.2098-2.2607 2.4062v1.375h-1.2831v-1.375c-0.89206-0.13504-1.7352-0.54018-2.4562-1.2522l1.002-1.2031c0.68431 0.65067 1.5153 0.94532 2.1752 0.94532 0.611 0 1.0143-0.29465 1.0143-0.77344 0-0.5279-0.39104-0.77344-1.3931-1.0681-1.3808-0.42969-2.6029-0.89621-2.6029-2.4554 0-1.2522 0.81874-2.1975 2.2607-2.3694v-1.4487h1.2831v1.5223c0.75764 0.1596 1.5275 0.51563 2.0774 0.95759l-0.96538 1.2154c-0.68431-0.47879-1.3442-0.6875-1.8819-0.6875-0.62322 0-0.9776 0.25782-0.9776 0.69978 0 0.45424 0.41548 0.6875 1.2953 0.96987 1.6375 0.49107 2.7128 0.92075 2.7128 2.5413z"/>
</svg>
