<?xml version="1.0" encoding="UTF-8"?>
<svg width="16px" height="18px" version="1.1" viewBox="0 0 16 18" xmlns="http://www.w3.org/2000/svg">
 <path d="m15.501 13.844-0.13-0.1175-2.3683-2.3675v-4.7108c0-2.215-1.4425-4.0908-3.4383-4.7467v-0.2825c-0.00167-0.8625-0.70167-1.5608-1.5642-1.56-0.86083 0.0016667-1.5592 0.69917-1.56 1.56v0.28417c-1.9958 0.65667-3.4375 2.5333-3.4375 4.7483v4.7075l-2.3367 2.3367-0.165 0.14833v1.0267h15v-1.01h0.0033l-0.0033-0.0033zm-7.4992 4.0967c1.1733 0 2.1242-0.95083 2.1242-2.1233h-4.2475c0 1.1725 0.95083 2.1233 2.1233 2.1233z" fill-rule="evenodd"/>
</svg>
