<?xml version="1.0" encoding="UTF-8"?>
<svg width="16px" height="18px" version="1.1" viewBox="0 0 16 18" xmlns="http://www.w3.org/2000/svg">
 <path d="m13.333 12.31c-0.67556 0-1.28 0.2623-1.7422 0.67322l-6.3378-3.6284c0.04444-0.20109 0.08-0.40219 0.08-0.61202s-0.03555-0.41093-0.08-0.61202l6.2667-3.5934c0.48 0.43716 1.1111 0.7082 1.8133 0.7082 1.4756 0 2.6667-1.1716 2.6667-2.623s-1.1911-2.623-2.6667-2.623c-1.4756 0-2.6667 1.1716-2.6667 2.623 0 0.20984 0.03555 0.41093 0.08 0.61202l-6.2667 3.5934c-0.48-0.43716-1.1111-0.7082-1.8133-0.7082-1.4756 0-2.6667 1.1716-2.6667 2.623s1.1911 2.623 2.6667 2.623c0.70222 0 1.3333-0.27104 1.8133-0.7082l6.3289 3.6372c-0.04444 0.18361-0.07111 0.37596-0.07111 0.56831 0 1.4076 1.1644 2.553 2.5956 2.553s2.5956-1.1454 2.5956-2.553-1.1644-2.553-2.5956-2.553z"/>
</svg>
