<?xml version="1.0" encoding="UTF-8"?>
<svg width="3px" height="13px" version="1.1" viewBox="0 0 3 13" xmlns="http://www.w3.org/2000/svg">
 <path id="Combined-Shape" d="m0 1.4773c0-0.81588 0.67157-1.4773 1.5-1.4773s1.5 0.6614 1.5 1.4773c0 0.81588-0.67157 1.4773-1.5 1.4773s-1.5-0.6614-1.5-1.4773zm0 4.9242c0-0.81588 0.67157-1.4773 1.5-1.4773s1.5 0.6614 1.5 1.4773-0.67157 1.4773-1.5 1.4773-1.5-0.6614-1.5-1.4773zm0 4.9242c0-0.81588 0.67157-1.4773 1.5-1.4773s1.5 0.6614 1.5 1.4773c0 0.81588-0.67157 1.4773-1.5 1.4773s-1.5-0.6614-1.5-1.4773z"/>
</svg>
