<?xml version="1.0" encoding="UTF-8"?>
<svg width="10" height="12" version="1.1" xmlns="http://www.w3.org/2000/svg">
 <path d="m5 0c1.6568 0 3 1.3432 3 3v2h0.75q0.06407 0 0.12715 0.00583 0.06307 0.00582 0.12465 0.01743 0.06157 0.0116 0.12114 0.02889t0.11664 0.04012q0.05708 0.02283 0.1112 0.05101 0.05412 0.02819 0.10483 0.0615 0.05072 0.03332 0.09763 0.07148 0.04691 0.03817 0.08962 0.08088 0.04271 0.04272 0.08088 0.08962 0.03817 0.04691 0.07148 0.09763t0.0615 0.10484q0.02819 0.05411 0.05102 0.11119 0.02283 0.05707 0.04011 0.11664 0.01729 0.05957 0.0289 0.12114 0.0116 0.06158 0.01742 0.12466 0.00583 0.06307 0.00583 0.12714v4.5q0 0.0641-0.00583 0.1271-0.00582 0.0631-0.01742 0.1247-0.01161 0.0616-0.0289 0.1211-0.01728 0.0596-0.04011 0.1167t-0.05102 0.1112-0.0615 0.1048-0.07148 0.0976-0.08088 0.0897q-0.04271 0.0427-0.08962 0.0808-0.04691 0.0382-0.09763 0.0715-0.05071 0.0333-0.10483 0.0615t-0.1112 0.051q-0.05707 0.0229-0.11664 0.0402-0.05957 0.0172-0.12114 0.0288-0.06158 0.0116-0.12465 0.0175-0.06308 0.0058-0.12715 0.0058h-7.5q-0.06407 0-0.12715-0.0058-0.06307-0.0059-0.12465-0.0175-0.061574-0.0116-0.12114-0.0288-0.059568-0.0173-0.11664-0.0402-0.057075-0.0228-0.11119-0.051-0.054119-0.0282-0.10484-0.0615t-0.097626-0.0715q-0.046907-0.0381-0.089618-0.0808-0.042712-0.0428-0.08088-0.0897t-0.071481-0.0976-0.0615-0.1048q-0.028186-0.0541-0.051017-0.1112-0.02283-0.0571-0.040118-0.1167-0.017288-0.0595-0.028892-0.1211t-0.01743-0.1247q-0.0058258-0.063-0.0058258-0.1271v-4.5q0-0.06407 0.0058258-0.12714 0.0058258-0.06308 0.01743-0.12466 0.011604-0.06157 0.028892-0.12114 0.017288-0.05957 0.040118-0.11664 0.022831-0.05708 0.051017-0.11119 0.028187-0.05412 0.0615-0.10484t0.071481-0.09763q0.038168-0.0469 0.08088-0.08962 0.042711-0.04271 0.089618-0.08088 0.046907-0.03816 0.097626-0.07148 0.050719-0.03331 0.10484-0.0615 0.054118-0.02818 0.11119-0.05101 0.057076-0.02283 0.11664-0.04012 0.059567-0.01729 0.12114-0.02889 0.061577-0.01161 0.12465-0.01743 0.06308-0.00583 0.12715-0.00583h0.75v-2c0-1.6568 1.3432-3 3-3zm-1.75 5h3.5v-2c0-0.9665-0.7835-1.75-1.75-1.75s-1.75 0.7835-1.75 1.75z" fill-rule="evenodd"/>
</svg>
