<?xml version="1.0" encoding="UTF-8"?>
<svg width="16" height="16" version="1.1" xmlns="http://www.w3.org/2000/svg">
 <path d="m13.44 5.2245 0.32 0.97959 2.24 0.81633v1.7959c0 0.16326-2.24 0.97959-2.24 0.97959l-0.32 0.97958s0.96 2.1225 0.8 2.2857l-1.12 1.1429c-0.16 0.1632-2.24-0.8163-2.24-0.8163l-1.12 0.3265-0.8 2.2857h-1.76c-0.16 0-0.96-2.1224-0.96-2.1224l-1.12-0.4898-2.08 0.9795-1.28-1.3061c-0.16-0.1632 0.8-2.2857 0.8-2.2857l-0.32-0.97958-2.24-0.81633v-1.7959c0-0.16326 2.24-0.97959 2.24-0.97959l0.32-0.97959s-0.96-2.1224-0.8-2.2857l1.12-1.1429c0.16-0.16327 2.24 0.81632 2.24 0.81632l1.12-0.32653 0.8-2.2857h1.76c0.16 0 0.96 2.1224 0.96 2.1224l1.12 0.48979 2.08-0.97959 1.28 1.3061c0.16 0.16326-0.8 2.2857-0.8 2.2857zm-5.44 5.3877c1.44 0 2.56-1.1428 2.56-2.6122s-1.12-2.6122-2.56-2.6122-2.56 1.1429-2.56 2.6122 1.12 2.6122 2.56 2.6122z" fill-rule="evenodd"/>
</svg>
