<?xml version="1.0" encoding="UTF-8"?>
<svg width="40" height="40" version="1.1" xmlns="http://www.w3.org/2000/svg">
 <path d="m17.941 27.646v-7.3416h-1.9412v-2.6434h1.9412v-2.2577c0-1.7742 1.1467-3.4033 3.7888-3.4033 1.0698 0 1.861 0.10256 1.861 0.10256l-0.06248 2.4684s-0.80678-0.0078-1.6872-0.0078c-0.95284 0-1.1055 0.43905-1.1055 1.1679v1.9301h2.8684l-0.12481 2.6434h-2.7436v7.3416h-2.7948z"/>
 <path d="m20 0.18555c-10.932-1e-8 -19.814 8.883-19.814 19.814 0 10.932 8.883 19.814 19.814 19.814 10.932 0 19.814-8.883 19.814-19.814 0-10.932-8.883-19.814-19.814-19.814zm0 1.8887c9.9117-1e-7 17.926 8.0137 17.926 17.926 0 9.9117-8.0137 17.926-17.926 17.926-9.9117 0-17.926-8.0137-17.926-17.926 0-9.9117 8.0137-17.926 17.926-17.926z" color="#000000" color-rendering="auto" dominant-baseline="auto" image-rendering="auto" shape-rendering="auto" solid-color="#000000" style="font-feature-settings:normal;font-variant-alternates:normal;font-variant-caps:normal;font-variant-ligatures:normal;font-variant-numeric:normal;font-variant-position:normal;isolation:auto;mix-blend-mode:normal;shape-padding:0;text-decoration-color:#000000;text-decoration-line:none;text-decoration-style:solid;text-indent:0;text-orientation:mixed;text-transform:none;white-space:normal"/>
</svg>
