<?xml version="1.0" encoding="UTF-8"?>
<svg width="40" height="40" version="1.1" xmlns="http://www.w3.org/2000/svg">
 <path d="m20 12c-2.1727 0-2.4451 0.0092-3.2984 0.04814-0.85154 0.03887-1.4331 0.17409-1.942 0.37186-0.52607 0.20444-0.97221 0.47799-1.417 0.92273-0.44474 0.44474-0.71829 0.89089-0.92274 1.417-0.19778 0.50889-0.33299 1.0904-0.37186 1.9419-0.038932 0.85326-0.04811 1.1257-0.04811 3.2984s0.0092 2.4451 0.04811 3.2984c0.03887 0.8515 0.17409 1.433 0.37186 1.9419 0.20444 0.5261 0.47799 0.9722 0.92274 1.417 0.44474 0.4447 0.89088 0.7183 1.417 0.9227 0.50889 0.1978 1.0904 0.333 1.942 0.3719 0.85329 0.0389 1.1257 0.0481 3.2984 0.0481s2.4451-0.0092 3.2984-0.0481c0.8515-0.0389 1.433-0.1741 1.9419-0.3719 0.5261-0.2044 0.9722-0.478 1.417-0.9227 0.4447-0.4448 0.7182-0.8909 0.9227-1.417 0.1978-0.5089 0.333-1.0904 0.3719-1.9419 0.0389-0.8533 0.0481-1.1257 0.0481-3.2984s-0.0092-2.4451-0.0481-3.2984c-0.0389-0.85154-0.1741-1.433-0.3719-1.9419-0.2045-0.52607-0.478-0.97222-0.9227-1.417-0.4448-0.44474-0.8909-0.71829-1.417-0.92273-0.5089-0.19778-1.0904-0.33299-1.9419-0.37186-0.8533-0.038933-1.1257-0.048142-3.2984-0.048142zm0 1.4415c2.1361 0 2.3891 0.0081 3.2327 0.04662 0.7799 0.0356 1.2035 0.16592 1.4855 0.27545 0.3734 0.14513 0.6399 0.31851 0.9198 0.59844s0.4533 0.54646 0.5984 0.91985c0.1096 0.28193 0.2399 0.70552 0.2755 1.4855 0.0385 0.8436 0.0466 1.0966 0.0466 3.2327s-0.0081 2.3891-0.0466 3.2327c-0.0356 0.78-0.1659 1.2036-0.2755 1.4855-0.1451 0.3734-0.3185 0.6399-0.5984 0.9198-0.2799 0.28-0.5464 0.4534-0.9198 0.5985-0.282 0.1095-0.7056 0.2398-1.4855 0.2754-0.8435 0.0385-1.0965 0.0467-3.2327 0.0467s-2.3892-0.0082-3.2327-0.0467c-0.77999-0.0356-1.2036-0.1659-1.4855-0.2754-0.37342-0.1451-0.63995-0.3185-0.91988-0.5985-0.27993-0.2799-0.45332-0.5464-0.59841-0.9198-0.10956-0.2819-0.23988-0.7055-0.27548-1.4855-0.03849-0.8436-0.04662-1.0966-0.04662-3.2327s0.0081-2.3891 0.04662-3.2327c0.0356-0.78 0.16592-1.2036 0.27548-1.4855 0.14509-0.37339 0.31848-0.63992 0.59841-0.91985s0.54646-0.45331 0.91988-0.59844c0.2819-0.10953 0.70549-0.23985 1.4854-0.27545 0.8436-0.03849 1.0966-0.04662 3.2327-0.04662zm0.01589 2.4633c-2.2705 0-4.1111 1.8406-4.1111 4.1111s1.8406 4.1111 4.1111 4.1111 4.1111-1.8406 4.1111-4.1111-1.8406-4.1111-4.1111-4.1111zm-2.6686 4.1111c0 1.4738 1.1948 2.6686 2.6686 2.6686s2.6686-1.1948 2.6686-2.6686-1.1948-2.6686-2.6686-2.6686-2.6686 1.1948-2.6686 2.6686zm7.859-4.3016c0 0.52599-0.4263 0.9524-0.9523 0.9524s-0.9524-0.42641-0.9524-0.9524 0.4264-0.95237 0.9524-0.95237 0.9523 0.42638 0.9523 0.95237" fill-rule="evenodd"/>
 <path d="m20 0.18555c-10.932-1e-8 -19.814 8.883-19.814 19.814 0 10.932 8.883 19.814 19.814 19.814 10.932 0 19.814-8.883 19.814-19.814 0-10.932-8.883-19.814-19.814-19.814zm0 1.8887c9.9117-1e-7 17.926 8.0137 17.926 17.926 0 9.9117-8.0137 17.926-17.926 17.926-9.9117 0-17.926-8.0137-17.926-17.926 0-9.9117 8.0137-17.926 17.926-17.926z" color="#000000" color-rendering="auto" dominant-baseline="auto" image-rendering="auto" shape-rendering="auto" solid-color="#000000" style="font-feature-settings:normal;font-variant-alternates:normal;font-variant-caps:normal;font-variant-ligatures:normal;font-variant-numeric:normal;font-variant-position:normal;isolation:auto;mix-blend-mode:normal;shape-padding:0;text-decoration-color:#000000;text-decoration-line:none;text-decoration-style:solid;text-indent:0;text-orientation:mixed;text-transform:none;white-space:normal"/>
</svg>
