<?xml version="1.0" encoding="UTF-8"?>
<svg width="40" height="40" version="1.1" xmlns="http://www.w3.org/2000/svg">
 <path d="m21.025 20.038v-0.0385c-8e-3 0.013-0.0165 0.026-0.025 0.0385z"/>
 <path d="m14.095 13h12.636c0.6054 0 1.0962 0.4785 1.0962 1.0689v12.784c0 0.5895-0.4905 1.0686-1.0962 1.0686h-12.636c-0.6048 0-1.0953-0.4788-1.0953-1.0686v-12.784c0-0.5901 0.4905-1.0689 1.0953-1.0689zm2.1569 4.328h-0.015c-0.7512 0-1.2372-0.5175-1.2372-1.164 0-0.6609 0.501-1.164 1.2669-1.164 0.7662 0 1.2375 0.5031 1.2525 1.164 0 0.6465-0.4866 1.164-1.2672 1.164zm7.3444 7.569h2.2398v-3.864c0-2.0697-1.1049-3.033-2.5782-3.033-1.1889 0-1.7211 0.6537-2.0187 1.1127v-0.9537h-2.2395c0.0294 0.6315 0 6.7377 0 6.7377h2.2395v-3.7629c0-0.2016 0.0144-0.4026 0.0735-0.5463 0.1623-0.4026 0.5307-0.8193 1.1493-0.8193 0.8103 0 1.1343 0.618 1.1343 1.5234zm-8.5966-0.0093h2.2395v-6.7377h-2.2395z" fill-rule="evenodd"/>
 <path d="m20 0.18555c-10.932-1e-8 -19.814 8.883-19.814 19.814 0 10.932 8.883 19.814 19.814 19.814 10.932 0 19.814-8.883 19.814-19.814 0-10.932-8.883-19.814-19.814-19.814zm0 1.8887c9.9117-1e-7 17.926 8.0137 17.926 17.926 0 9.9117-8.0137 17.926-17.926 17.926-9.9117 0-17.926-8.0137-17.926-17.926 0-9.9117 8.0137-17.926 17.926-17.926z" color="#000000" color-rendering="auto" dominant-baseline="auto" image-rendering="auto" shape-rendering="auto" solid-color="#000000" style="font-feature-settings:normal;font-variant-alternates:normal;font-variant-caps:normal;font-variant-ligatures:normal;font-variant-numeric:normal;font-variant-position:normal;isolation:auto;mix-blend-mode:normal;shape-padding:0;text-decoration-color:#000000;text-decoration-line:none;text-decoration-style:solid;text-indent:0;text-orientation:mixed;text-transform:none;white-space:normal"/>
</svg>
