<?xml version="1.0" encoding="UTF-8"?>
<svg width="40" height="40" version="1.1" xmlns="http://www.w3.org/2000/svg">
 <path d="m28.178 14.653c-0.632 0.28034-1.3113 0.46973-2.0241 0.55493 0.7276-0.43615 1.2865-1.1268 1.5496-1.9498-0.6811 0.40394-1.4353 0.69716-2.2381 0.8552-0.6428-0.68497-1.5587-1.1129-2.5724-1.1129-1.9462 0-3.5243 1.5779-3.5243 3.5241 0 0.27623 0.03117 0.54523 0.09121 0.80316-2.929-0.14696-5.5258-1.55-7.2639-3.6823-0.30336 0.52049-0.4772 1.1258-0.4772 1.7717 0 1.2227 0.62218 2.3014 1.5678 2.9334-0.57778-0.0183-1.1211-0.17685-1.5963-0.44079-3.43e-4 0.01469-3.43e-4 0.02946-3.43e-4 0.04432 0 1.7075 1.2148 3.1319 2.8271 3.4557-0.29572 0.08057-0.60707 0.1236-0.92855 0.1236-0.22718 0-0.44791-0.02216-0.66315-0.06322 0.4486 1.4001 1.75 2.4191 3.2922 2.4475-1.2062 0.9453-2.7257 1.5086-4.3769 1.5086-0.28447 0-0.56498-0.0166-0.84069-0.0493 1.5597 1 3.4122 1.5836 5.4024 1.5836 6.4823 0 10.027-5.3702 10.027-10.027 0-0.1528-0.0034-0.30473-0.0102-0.45599 0.6888-0.49678 1.2862-1.1175 1.7587-1.8242z"/>
 <path d="m20 0.18555c-10.932-1e-8 -19.814 8.883-19.814 19.814 0 10.932 8.883 19.814 19.814 19.814 10.932 0 19.814-8.883 19.814-19.814 0-10.932-8.883-19.814-19.814-19.814zm0 1.8887c9.9117-1e-7 17.926 8.0137 17.926 17.926 0 9.9117-8.0137 17.926-17.926 17.926-9.9117 0-17.926-8.0137-17.926-17.926 0-9.9117 8.0137-17.926 17.926-17.926z" color="#000000" color-rendering="auto" dominant-baseline="auto" image-rendering="auto" shape-rendering="auto" solid-color="#000000" style="font-feature-settings:normal;font-variant-alternates:normal;font-variant-caps:normal;font-variant-ligatures:normal;font-variant-numeric:normal;font-variant-position:normal;isolation:auto;mix-blend-mode:normal;shape-padding:0;text-decoration-color:#000000;text-decoration-line:none;text-decoration-style:solid;text-indent:0;text-orientation:mixed;text-transform:none;white-space:normal"/>
</svg>
