<?xml version="1.0" encoding="UTF-8"?>
<svg width="40" height="40" version="1.1" xmlns="http://www.w3.org/2000/svg">
 <path d="m13.006 15.672v-2.6719c3.8581 0.0016 7.3531 1.5714 9.8884 4.1075 2.5352 2.5369 4.1042 6.0336 4.1058 9.8925h-2.6793c-0.0058-6.2444-5.0763-11.324-11.315-11.328zm-0.0041 4.7619v-2.6728c2.546 8.3e-4 4.8524 1.0372 6.5259 2.7114 1.6734 1.6743 2.709 3.9807 2.7114 6.5275h-2.6859v-0.0049c-0.00329-1.7509-0.68485-3.4037-1.9212-4.6376-1.2339-1.2372-2.8859-1.9229-4.6302-1.9237zm3.7181 4.6985c-8.2e-4 -0.512-0.20743-0.9713-0.54739-1.3105-0.33749-0.3366-0.80009-0.5449-1.3137-0.5449-0.51446 0-0.97542 0.2083-1.3137 0.5449-0.33668 0.3384-0.54494 0.7985-0.54494 1.3105 0 0.5112 0.20826 0.9705 0.54492 1.3071h-8.23e-4l8.23e-4 9e-4v-9e-4c0.33831 0.3367 0.79927 0.5441 1.3137 0.5441 0.51365 0 0.97625-0.2066 1.3137-0.5432l0.0017-9e-4c0.33831-0.3366 0.54492-0.7968 0.54574-1.3071z" fill-rule="evenodd"/>
 <path d="m20 0.015625c-11.023 0-19.982 8.9176-19.982 19.898 0 10.98 8.9601 19.9 19.982 19.9 11.023 0 19.982-8.9196 19.982-19.9 0-10.98-8.9601-19.898-19.982-19.898zm0 1.9004c10 0 18.084 8.0485 18.084 17.998 0 9.95-8.0829 18-18.084 18-10 0-18.084-8.0505-18.084-18 0-9.95 8.0829-17.998 18.084-17.998z" color="#000000" color-rendering="auto" dominant-baseline="auto" image-rendering="auto" shape-rendering="auto" solid-color="#000000" style="font-feature-settings:normal;font-variant-alternates:normal;font-variant-caps:normal;font-variant-ligatures:normal;font-variant-numeric:normal;font-variant-position:normal;isolation:auto;mix-blend-mode:normal;shape-padding:0;text-decoration-color:#000000;text-decoration-line:none;text-decoration-style:solid;text-indent:0;text-orientation:mixed;text-transform:none;white-space:normal"/>
</svg>
