<?xml version="1.0" encoding="UTF-8"?>
<svg width="40px" height="40px" version="1.1" viewBox="0 0 40 40" xmlns="http://www.w3.org/2000/svg">
 <path d="m20 0a20 20 0 0 0-20 20 20 20 0 0 0 20 20 20 20 0 0 0 20-20 20 20 0 0 0-20-20zm2.0273 12c1.1255 0 1.959 0.10547 1.959 0.10547l-0.066406 2.5234s-0.8492-0.007812-1.7754-0.007812c-1.0024 0-1.1621 0.44993-1.1621 1.1953v1.9727h3.0176l-0.13086 2.7031h-2.8867v7.5078h-2.9395v-7.5078h-2.043v-2.7031h2.043v-2.3086c0-1.8143 1.2048-3.4805 3.9844-3.4805z" fill-rule="evenodd"/>
</svg>
