<?xml version="1.0" encoding="UTF-8"?>
<svg width="40px" height="40px" version="1.1" viewBox="0 0 40 40" xmlns="http://www.w3.org/2000/svg">
 <path d="m20 0a20 20 0 0 0-20 20 20 20 0 0 0 20 20 20 20 0 0 0 20-20 20 20 0 0 0-20-20zm0 12c2.1727 0 2.4456 0.009888 3.2988 0.048828 0.85154 0.03887 1.4325 0.17332 1.9414 0.37109 0.52607 0.20444 0.97322 0.47713 1.418 0.92188 0.44474 0.44474 0.71743 0.8919 0.92188 1.418 0.19778 0.50889 0.33222 1.0899 0.37109 1.9414 0.038933 0.85326 0.048828 1.1261 0.048828 3.2988 0 2.1727-0.009888 2.4456-0.048828 3.2988-0.03887 0.85154-0.17332 1.4325-0.37109 1.9414-0.20445 0.52607-0.47713 0.97322-0.92188 1.418-0.44474 0.44474-0.8919 0.71743-1.418 0.92188-0.50889 0.19778-1.0899 0.33222-1.9414 0.37109-0.85326 0.038932-1.1261 0.048828-3.2988 0.048828-2.1727 0-2.4455-0.009896-3.2988-0.048828-0.85154-0.03887-1.4325-0.17332-1.9414-0.37109-0.52607-0.20444-0.97322-0.47713-1.418-0.92188-0.44474-0.44474-0.71743-0.89193-0.92188-1.418-0.19778-0.50889-0.33222-1.0899-0.37109-1.9414-0.038932-0.85325-0.048828-1.1261-0.048828-3.2988 0-2.1727 0.009918-2.4456 0.048828-3.2988 0.03887-0.85154 0.17332-1.4325 0.37109-1.9414 0.20444-0.52607 0.47713-0.97322 0.92188-1.418 0.44474-0.44474 0.8919-0.71743 1.418-0.92188 0.50889-0.19778 1.0899-0.33222 1.9414-0.37109 0.85328-0.038933 1.1261-0.048828 3.2988-0.048828zm0 1.4414c-2.1361 0-2.3888 0.008385-3.2324 0.046875-0.77996 0.035598-1.2044 0.16586-1.4863 0.27539-0.37342 0.14512-0.63999 0.31773-0.91992 0.59766-0.27993 0.27993-0.45256 0.54653-0.59766 0.91992-0.10956 0.28193-0.23979 0.70634-0.27539 1.4863-0.03852 0.84357-0.046875 1.0963-0.046875 3.2324 0 2.1361 0.008385 2.3888 0.046875 3.2324 0.035598 0.77996 0.16583 1.2044 0.27539 1.4863 0.14509 0.37339 0.31773 0.63999 0.59766 0.91992 0.27993 0.27993 0.5465 0.45256 0.91992 0.59766 0.2819 0.10956 0.70634 0.23979 1.4863 0.27539 0.84344 0.03852 1.0962 0.046875 3.2324 0.046875 2.1362 0 2.389-0.008385 3.2324-0.046875 0.77999-0.035598 1.2044-0.16583 1.4863-0.27539 0.37339-0.14509 0.63999-0.31773 0.91992-0.59766 0.27993-0.27993 0.45256-0.54654 0.59766-0.91992 0.10956-0.28193 0.23979-0.70634 0.27539-1.4863 0.03852-0.84357 0.046875-1.0963 0.046875-3.2324 0-2.1361-0.008385-2.3888-0.046875-3.2324-0.035598-0.77996-0.16583-1.2044-0.27539-1.4863-0.14509-0.37339-0.31773-0.63999-0.59766-0.91992-0.27993-0.27993-0.54653-0.45253-0.91992-0.59766-0.28193-0.10953-0.70634-0.23979-1.4863-0.27539-0.84357-0.03852-1.0963-0.046875-3.2324-0.046875zm4.2539 1.3203c0.52599 0 0.95312 0.42714 0.95312 0.95312s-0.42714 0.95117-0.95312 0.95117-0.95312-0.42518-0.95312-0.95117 0.42714-0.95312 0.95312-0.95312zm-4.2383 1.1426c2.2705 0 4.1113 1.8408 4.1113 4.1113s-1.8408 4.1113-4.1113 4.1113-4.1113-1.8408-4.1113-4.1113 1.8408-4.1113 4.1113-4.1113zm0 1.4434c-1.4738 0-2.668 1.1941-2.668 2.668s1.1941 2.668 2.668 2.668 2.668-1.1941 2.668-2.668-1.1941-2.668-2.668-2.668z" fill-rule="evenodd"/>
</svg>
