<?xml version="1.0" encoding="UTF-8"?>
<svg width="40px" height="40px" version="1.1" viewBox="0 0 40 40" xmlns="http://www.w3.org/2000/svg">
 <path d="m20 0a20 20 0 0 0-20 20 20 20 0 0 0 20 20 20 20 0 0 0 20-20 20 20 0 0 0-20-20zm2.7695 13c1.0032 0 1.9107 0.4283 2.5469 1.1152 0.79449-0.15849 1.5409-0.45233 2.2148-0.85742-0.26035 0.82535-0.81512 1.5177-1.5352 1.9551 0.70541-0.085446 1.3785-0.27354 2.0039-0.55469-0.46758 0.70872-1.0586 1.3299-1.7402 1.8281 0.00671 0.15168 0.009765 0.3038 0.009765 0.45703 0 4.6705-3.5087 10.057-9.9238 10.057-1.9695 0-3.8022-0.58503-5.3457-1.5879 0.27285 0.03273 0.55051 0.048829 0.83203 0.048829 1.6341 0 3.1384-0.56371 4.332-1.5117-1.5263-0.028425-2.8139-1.051-3.2578-2.4551 0.21301 0.04117 0.43143 0.0625 0.65625 0.0625 0.31815 0 0.62532-0.042257 0.91797-0.12305-1.5955-0.32473-2.7969-1.7525-2.7969-3.4648 0-0.01491-3.4e-4 -0.030192 0-0.044922 0.47022 0.26469 1.0083 0.42306 1.5801 0.44141-0.93585-0.63378-1.5527-1.7152-1.5527-2.9414 0-0.64774 0.17244-1.2554 0.47266-1.7773 1.7201 2.1383 4.2908 3.546 7.1895 3.6934-0.05942-0.25866-0.091797-0.52768-0.091797-0.80469 0-1.9518 1.5622-3.5352 3.4883-3.5352z" fill-rule="evenodd"/>
</svg>
