<?xml version="1.0" encoding="UTF-8"?>
<svg width="40px" height="40px" version="1.1" viewBox="0 0 40 40" xmlns="http://www.w3.org/2000/svg">
 <path d="m20 0a20 20 0 0 0-20 20 20 20 0 0 0 20 20 20 20 0 0 0 20-20 20 20 0 0 0-20-20zm0 13s6.2548 1.37e-4 7.8145 0.41797c0.86052 0.22999 1.5376 0.90722 1.7676 1.7676 0.41799 1.5599 0.41797 4.8145 0.41797 4.8145s2.5e-5 3.2547-0.41797 4.8145c-0.22999 0.86036-0.90706 1.5378-1.7676 1.7676-1.5597 0.418-7.8145 0.41797-7.8145 0.41797s-6.2548 2.7e-5 -7.8145-0.41797c-0.86052-0.22982-1.5376-0.90722-1.7676-1.7676-0.41799-1.5597-0.41797-4.8145-0.41797-4.8145s-2.53e-5 -3.2546 0.41797-4.8145c0.22999-0.86036 0.90706-1.5376 1.7676-1.7676 1.5597-0.41783 7.8145-0.41797 7.8145-0.41797zm-2.1855 3.9082v6l5.1973-3-5.1973-3z" fill-rule="evenodd"/>
</svg>
