<?xml version="1.0" encoding="UTF-8"?>
<svg width="40px" height="40px" version="1.1" viewBox="0 0 40 40" xmlns="http://www.w3.org/2000/svg">
 <path d="m20 0a20 20 0 0 0-20 20 20 20 0 0 0 20 20 20 20 0 0 0 20-20 20 20 0 0 0-20-20zm-6.9941 13c3.8581 0.001646 7.3534 1.5713 9.8887 4.1074 2.5353 2.5369 4.1038 6.0337 4.1055 9.8926h-2.6797c-0.005762-6.2444-5.0759-11.324-11.314-11.328v-2.6719zm-0.003906 4.7617c2.546 8.23e-4 4.8519 1.0367 6.5254 2.7109 1.6734 1.6743 2.7084 3.9805 2.7109 6.5273h-2.6855v-0.005859c-0.003293-1.7508-0.68356-3.4028-1.9199-4.6367-1.2339-1.2372-2.8866-1.923-4.6309-1.9238v-2.6719zm1.8574 5.5156c0.51364 0 0.97501 0.20826 1.3125 0.54492 0.33996 0.33913 0.548 0.79855 0.54883 1.3105-8.23e-4 0.51035-0.20856 0.96998-0.54688 1.3066h-0.001953c-0.33749 0.33667-0.79886 0.54492-1.3125 0.54492-0.51446 0-0.97614-0.20826-1.3145-0.54492-0.33663-0.33666-0.54492-0.79547-0.54492-1.3066 0-0.51199 0.20826-0.97224 0.54492-1.3105 0.33831-0.33667 0.79999-0.54492 1.3145-0.54492z" fill-rule="evenodd"/>
</svg>
