<?xml version="1.0" encoding="UTF-8"?>
<svg width="20" height="20" version="1.1" xmlns="http://www.w3.org/2000/svg">
 <path d="m9.957 0.0078125c-5.4925 0-9.9492 4.5202-9.9492 10.076 0 5.5559 4.4566 10.076 9.9492 10.076 5.4925 0 9.9492-4.5203 9.9492-10.076 0-5.556-4.4567-10.076-9.9492-10.076zm0 0.95312c4.9703 0 8.9961 4.0756 8.9961 9.123 0 5.0473-4.0258 9.123-8.9961 9.123-4.9704 0-8.9941-4.0757-8.9941-9.123 0-5.0474 4.0239-9.123 8.9941-9.123z" color="#000000" color-rendering="auto" dominant-baseline="auto" image-rendering="auto" shape-rendering="auto" solid-color="#000000" style="font-feature-settings:normal;font-variant-alternates:normal;font-variant-caps:normal;font-variant-ligatures:normal;font-variant-numeric:normal;font-variant-position:normal;isolation:auto;mix-blend-mode:normal;shape-padding:0;text-decoration-color:#000000;text-decoration-line:none;text-decoration-style:solid;text-indent:0;text-orientation:mixed;text-transform:none;white-space:normal"/>
 <path d="m14 9.1667-0.80794 0.80794-2.6198-2.6198v5.811h-1.1445l-3e-7 -5.811-2.6198 2.6198-0.80737-0.80794 3.9997-3.9997z"/>
</svg>
