<?xml version="1.0" encoding="UTF-8"?>
<svg width="20" height="20" version="1.1" xmlns="http://www.w3.org/2000/svg">
 <path d="m10.086 0.0078125c-5.5136 0-9.9922 4.4985-9.9922 10.033 0 5.5347 4.4786 10.035 9.9922 10.035 5.5136 0 9.9902-4.5004 9.9902-10.035 0-5.5347-4.4766-10.033-9.9902-10.033zm0 0.95312c4.996 0 9.0371 4.0584 9.0371 9.0801 0 5.0217-4.0411 9.082-9.0371 9.082-4.996 0-9.0391-4.0604-9.0391-9.082 0-5.0217 4.0431-9.0801 9.0391-9.0801z" color="#000000" color-rendering="auto" dominant-baseline="auto" image-rendering="auto" shape-rendering="auto" solid-color="#000000" style="font-feature-settings:normal;font-variant-alternates:normal;font-variant-caps:normal;font-variant-ligatures:normal;font-variant-numeric:normal;font-variant-position:normal;isolation:auto;mix-blend-mode:normal;shape-padding:0;text-decoration-color:#000000;text-decoration-line:none;text-decoration-style:solid;text-indent:0;text-orientation:mixed;text-transform:none;white-space:normal"/>
 <path d="m9.5084 10.599 0.01207 0.60337h1.3998l0.0362-0.50683c0.0362-0.43442 0.50683-0.79644 1.0016-1.255 0.53096-0.51889 1.0619-1.1464 1.0619-2.0876 0-1.5808-1.1947-2.3531-2.5462-2.3531-1.0016 0-1.9308 0.43442-2.4738 1.1102l1.1223 1.0499c0.30168-0.41029 0.76024-0.65164 1.2188-0.65164 0.56716 0 0.96538 0.33789 0.96538 0.94125 0 0.54303-0.38615 0.97746-0.77231 1.3757-0.06009 0.0661-0.1213 0.13145-0.1824 0.19669-0.42971 0.45875-0.85388 0.91161-0.84332 1.5772zm-0.24134 2.5341c0 0.53096 0.43442 0.95331 0.97745 0.95331 0.53096 0 0.97745-0.42235 0.97745-0.95331 0-0.53097-0.44649-0.96539-0.97745-0.96539-0.54303 0-0.97745 0.43442-0.97745 0.96539z" fill-rule="evenodd"/>
</svg>
