<?xml version="1.0" encoding="UTF-8"?>
<svg width="26px" height="26px" version="1.1" xmlns="http://www.w3.org/2000/svg">
 <defs>
  <polygon id="path-3" points="1e-4 0.722 25.428 0.722 25.428 26.18 1e-4 26.18"/>
 </defs>
 <path d="m6.3389 12.389h6.466v-6.033h-5.413c-0.642 1.823-1.006 3.862-1.053 6.033zm9.758 13.232h2.471l5.312-5.311h-4.214c-0.846 2.104-2.055 3.916-3.569 5.311zm-4.369 0h1.077v-5.311h-5.048c0.928 2.185 2.281 4.008 3.971 5.311zm-9.11-5.311 5.312 5.311h2.456c-1.511-1.394-2.717-3.207-3.56-5.311zm12.255-20.148h-1.148v5.273h5.045c-0.912-2.171-2.24-3.981-3.897-5.273zm-7.123 5.273h5.055v-5.273h-1.149c-1.66 1.292-2.991 3.102-3.906 5.273zm-0.352 13.954h5.407v-6.079h-6.466c0.043 2.185 0.407 4.242 1.059 6.079zm17.385-13.033h-4.745c0.612 1.84 0.959 3.875 1 6.033h4.941v-4.838zm-4.617 6.954h-6.441v6.079h5.37c0.656-1.837 1.022-3.894 1.071-6.079zm3.696-7.875-5.273-5.273h-2.381c1.483 1.383 2.67 3.181 3.496 5.273zm-3.855 13.954h4.793l1.179-1.179v-4.9h-4.944c-0.046 2.173-0.401 4.224-1.028 6.079zm-9.687-19.227h-2.475l-5.205 5.273h4.175c0.831-2.092 2.02-3.89 3.505-5.273zm3.405 20.148v5.311h1.03c1.692-1.303 3.048-3.126 3.98-5.311zm-8.256-7h-4.918v4.933l1.147 1.146h4.789c-0.624-1.855-0.975-3.906-1.018-6.079zm1.011-6.954h-4.749l-1.18 1.195v4.838h4.918c0.045-2.158 0.395-4.193 1.011-6.033zm13.689 6.033h-6.444v-6.033h5.4c0.639 1.823 1.001 3.862 1.044 6.033z" mask="url(#path-3)"/>
</svg>
