<?xml version="1.0" encoding="UTF-8"?>
<svg width="20px" height="20px" version="1.1" viewBox="0 0 20 20" xmlns="http://www.w3.org/2000/svg">
 <path d="m6.6691 12.666h6.8224v1.1819h-6.8224zm7.3433 0.59749a0.56908 0.59189 0 0 1-0.56908 0.59189 0.56908 0.59189 0 0 1-0.56908-0.59189 0.56908 0.59189 0 0 1 0.56908-0.59189 0.56908 0.59189 0 0 1 0.56908 0.59189zm-6.829 0a0.56908 0.59189 0 0 1-0.56908 0.59189 0.56908 0.59189 0 0 1-0.56908-0.59189 0.56908 0.59189 0 0 1 0.56908-0.59189 0.56908 0.59189 0 0 1 0.56908 0.59189zm6.2599 0h-6.829m0.20019-7.2087c-0.95843-0.15066-1.5971 1.1746-0.88281 1.834 0.6135 0.70645 1.9061 0.17906 1.8555-0.75586 0.010098-0.54213-0.43371-1.0341-0.97266-1.0781zm6.4745-0.0097c-0.95842-0.15065-1.5971 1.1727-0.88281 1.832 0.6135 0.70645 1.9061 0.18101 1.8555-0.75391 0.0101-0.54213-0.43371-1.0341-0.97266-1.0781zm-3.6015-4.9922c2.7732-0.09846 5.5879 0.98842 7.2832 3.3047l0.0078 0.00977 0.0059 0.00781c1.2399 1.5583 1.9332 3.5555 1.9297 5.5488-1e-6 0.00204 2e-3 0.00382 2e-3 0.00586v0.021484c0.21732 5.7444-6.1281 10.423-11.529 8.5254l-0.039062-0.0118c-5.5312-1.4893-8.1266-8.9486-4.7148-13.564l0.011719-0.017578 0.011719-0.015625c1.5276-2.4308 4.258-3.716 7.0312-3.8145zm-0.039062-1.1094c-3.1022 0.11013-6.1546 1.5719-7.8984 4.3359-3.8659 5.2612-0.99353 13.513 5.2988 15.223 6.0952 2.1243 13.022-2.9454 12.928-9.3906l0.02148-0.03711v-0.14258c1.3e-5 -0.00528-2e-3 -0.010342-2e-3 -0.015625-7.4e-5 -0.00199 7.5e-5 -0.00386 0-0.00586l-2e-3 0.00391c0.0017-2.236-0.76532-4.4505-2.1542-6.2012-1.9342-2.6382-5.0865-3.8798-8.1914-3.7695z"/>
</svg>
