<?xml version="1.0" encoding="utf-8"?>
<svg width="20px" height="18px" viewBox="0 0 20 18" version="1.1" xmlns:xlink="http://www.w3.org/1999/xlink" xmlns="http://www.w3.org/2000/svg">
  <path d="M10.0038 14.7021C10.5905 14.7021 11.0703 14.2272 11.0703 13.6337C11.0703 13.0532 10.5903 12.5785 10.0038 12.5785C9.40384 12.5785 8.92406 13.0534 8.92406 13.6337C8.92406 14.2272 9.40406 14.7021 10.0038 14.7021ZM11.0038 5.96933C11.0038 5.41521 10.5505 4.98005 10.0041 4.98005C9.44406 4.98005 9.00428 5.41543 9.00428 5.96933L9.00428 10.6655C9.00428 11.2064 9.44428 11.6547 10.0041 11.6547C10.5507 11.6547 11.0038 11.2062 11.0038 10.6655L11.0038 5.96933ZM12.8703 1.64239L19.5494 13.0928C20.8292 15.2694 19.2294 18 16.6832 18L3.31139 18C0.764943 18 -0.821502 15.2694 0.445165 13.0928L7.12428 1.64239C8.40406 -0.547463 11.5905 -0.547463 12.8703 1.64239Z" id="Shape" fill="#000000"/>
</svg>