<?xml version="1.0" encoding="UTF-8"?>
<svg width="16px" height="16px" viewBox="0 0 16 16" version="1.1" xmlns="http://www.w3.org/2000/svg" xmlns:xlink="http://www.w3.org/1999/xlink">
  <g id="audio">
    <path d="M8.00006575,1 C8.4906842,1 8.88899116,1.28964951 8.88899116,1.64645277 L8.88899116,14.5757695 C8.88899116,14.933226 8.4906842,15.2222222 8.00006575,15.2222222 C7.5094473,15.2222222 7.11114033,14.933226 7.11114033,14.5757695 L7.11114033,1.64645277 C7.11114033,1.28964951 7.5094473,1 8.00006575,1 Z M4.44449558,2.93948896 C4.93511403,2.93948896 5.333421,3.22913847 5.333421,3.58581108 L5.333421,12.6364111 C5.333421,12.9939983 4.93511403,13.2828639 4.44449558,13.2828639 C3.95374563,13.2828639 3.55557017,12.9939983 3.55557017,12.6364111 L3.55557017,3.58581108 C3.55557017,3.22913847 3.95374563,2.93948896 4.44449558,2.93948896 Z M11.5556359,3.58581108 C12.0470434,3.58581108 12.4445613,3.87546059 12.4445613,4.23226385 L12.4445613,11.9899584 C12.4445613,12.3474149 12.0470434,12.6364111 11.5556359,12.6364111 C11.064097,12.6364111 10.6667105,12.3474149 10.6667105,11.9899584 L10.6667105,4.23226385 C10.6667105,3.87546059 11.064097,3.58581108 11.5556359,3.58581108 Z M0.888925416,5.52530003 C1.37954387,5.52530003 1.77785083,5.81494955 1.77785083,6.1717528 L1.77785083,10.0504694 C1.77785083,10.4074033 1.37954387,10.6970528 0.888925416,10.6970528 C0.398175467,10.6970528 -5.17363929e-14,10.4074033 -5.17363929e-14,10.0504694 L-5.17363929e-14,6.1717528 C-5.17363929e-14,5.81494955 0.398175467,5.52530003 0.888925416,5.52530003 Z M15.1110746,6.1717528 C15.6026135,6.1717528 16,6.46140232 16,6.81820557 L16,9.40401665 C16,9.76095056 15.6026135,10.0504694 15.1110746,10.0504694 C14.6196671,10.0504694 14.2222807,9.76095056 14.2222807,9.40401665 L14.2222807,6.81820557 C14.2222807,6.46140232 14.6196671,6.1717528 15.1110746,6.1717528 Z"></path>
  </g>
</svg>
