<?xml version="1.0"?>
<svg width="16" height="16" xmlns="http://www.w3.org/2000/svg" xmlns:svg="http://www.w3.org/2000/svg">
 <g class="layer">
  <path fill="#000000" d="M 8,0.19921875 C 3.6981012,0.19921875 0.19921875,3.6981012 0.19921875,8 c 0,4.301899 3.49888245,7.800781 7.80078125,7.800781 4.301899,0 7.800781,-3.498882 7.800781,-7.800781 C 15.800781,3.6981012 12.301899,0.19921875 8,0.19921875 Z M 8,1.1992188 C 11.761459,1.1992187 14.800781,4.2385413 14.800781,8 14.800781,11.761459 11.761459,14.800781 8,14.800781 4.2385413,14.800781 1.1992188,11.761459 1.1992188,8 1.1992187,4.2385413 4.2385413,1.1992188 8,1.1992188 Z"/>
  <rect fill="#000000" height="6.75" rx="0.6" ry="0.6" stroke="#000000" stroke-width="0" width="1.2" x="5.2" y="4.6"/>
  <rect fill="#000000" height="6.75" rx="0.6" ry="0.6" stroke="#000000" stroke-width="0" width="1.2" x="9.5" y="4.6"/>
 </g>
</svg>
