<?xml version="1.0"?>
<svg width="16" height="16" xmlns="http://www.w3.org/2000/svg" xmlns:svg="http://www.w3.org/2000/svg">
 <g class="layer">
  <path fill="#000000" d="M 8.5078125,0.86914062 A 0.50083746,0.50083746 0 0 0 8.1699219,1.015625 L 4.3789062,4.8007812 H 0.859375 a 0.50083746,0.50083746 0 0 0 -0.5,0.5 v 5.0605468 a 0.50083746,0.50083746 0 0 0 0.5,0.5 h 3.4628906 l 3.8476563,3.841797 A 0.50083746,0.50083746 0 0 0 9.0234375,14.349609 V 1.3691406 A 0.50083746,0.50083746 0 0 0 8.5078125,0.86914062 Z M 8.0234375,2.5742188 V 13.144531 L 4.8828125,10.007812 A 0.50083746,0.50083746 0 0 0 4.5292969,9.8613281 H 1.359375 V 5.8007812 H 4.5859375 A 0.50083746,0.50083746 0 0 0 4.9394531,5.6542969 Z m 0.470696,-1.2050782 -3.9375,3.9316406 H 0.83007097 V 10.361328 H 4.4999929 l 3.9941406,3.988281 z" />
  <path fill="#000000" d="m 13.367188,3.2988281 a 0.50005,0.50005 0 0 0 -0.31836,0.8496094 c 2.13857,2.2483109 2.13857,5.1774704 0,7.4257815 a 0.50010126,0.50010126 0 1 0 0.72461,0.689453 c 2.45141,-2.5772041 2.45141,-6.2274836 0,-8.8046876 a 0.50005,0.50005 0 0 0 -0.40625,-0.1601563 z m -2.058594,1.6171875 a 0.50005,0.50005 0 0 0 -0.369141,0.828125 c 1.11674,1.31848 1.11674,2.9139419 0,4.2324219 a 0.5002842,0.5002842 0 1 0 0.763672,0.6464845 c 1.391767,-1.6431916 1.391767,-3.8821993 0,-5.5253908 A 0.50005,0.50005 0 0 0 11.308594,4.9160156 Z"/>
 </g>
</svg>