<?xml version="1.0" encoding="UTF-8"?>
<svg xmlns="http://www.w3.org/2000/svg" xmlns:xlink="http://www.w3.org/1999/xlink" width="9pt" height="15pt" viewBox="0 0 9 15" version="1.1">
  <g id="surface1">
    <path d="M 1.617188 0 L 7.382812 0 C 7.824219 0 8.222656 0.175781 8.511719 0.457031 C 8.800781 0.738281 8.980469 1.125 8.980469 1.554688 L 8.980469 13.445312 C 8.980469 13.875 8.800781 14.261719 8.511719 14.542969 C 8.222656 14.824219 7.824219 15 7.382812 15 L 1.617188 15 C 1.175781 15 0.777344 14.824219 0.488281 14.542969 C 0.199219 14.261719 0.0195312 13.875 0.0195312 13.445312 L 0.0195312 1.554688 C 0.0195312 1.125 0.199219 0.738281 0.488281 0.457031 C 0.777344 0.175781 1.175781 0 1.617188 0 Z M 4.5 13.082031 C 4.859375 13.082031 5.152344 13.367188 5.152344 13.71875 C 5.152344 14.070312 4.859375 14.359375 4.5 14.359375 C 4.140625 14.359375 3.847656 14.070312 3.847656 13.71875 C 3.847656 13.367188 4.140625 13.082031 4.5 13.082031 Z M 0.480469 12.59375 L 8.523438 12.59375 L 8.523438 2.40625 L 0.480469 2.40625 Z M 0.480469 12.59375 "/>
  </g>
</svg>
