<?xml version="1.0" encoding="UTF-8" standalone="no"?>
<svg
   width="16px"
   height="16px"
   viewBox="0 0 16 16"
   version="1.1"
   id="svg8"
   sodipodi:docname="78-facebook-simple.svg"
   inkscape:version="1.1 (c68e22c387, 2021-05-23)"
   xmlns:inkscape="http://www.inkscape.org/namespaces/inkscape"
   xmlns:sodipodi="http://sodipodi.sourceforge.net/DTD/sodipodi-0.dtd"
   xmlns="http://www.w3.org/2000/svg"
   xmlns:svg="http://www.w3.org/2000/svg">
  <defs
     id="defs12" />
  <sodipodi:namedview
     id="namedview10"
     pagecolor="#ffffff"
     bordercolor="#666666"
     borderopacity="1.0"
     inkscape:pageshadow="2"
     inkscape:pageopacity="0.0"
     inkscape:pagecheckerboard="0"
     showgrid="false"
     inkscape:zoom="32.5"
     inkscape:cx="7.9846154"
     inkscape:cy="7.9846154"
     inkscape:window-width="1600"
     inkscape:window-height="837"
     inkscape:window-x="-8"
     inkscape:window-y="-2"
     inkscape:window-maximized="1"
     inkscape:current-layer="svg8" />
  <!-- Generator: Sketch 64 (93537) - https://sketch.com -->
  <title
     id="title2">Icons / Social - Facebook</title>
  <desc
     id="desc4">Created with Sketch.</desc>
  <g
     id="Icons-/-Social---Facebook"
     stroke="none"
     stroke-width="1"
     fill="none"
     fill-rule="evenodd">
    <path
       style="color:#000000;fill:#000000;-inkscape-stroke:none"
       d="M 15.3335,0 H 0.667 C 0.299,0 0,0.2985 0,0.6665 v 14.667 C 0,15.7015 0.299,16 0.667,16 H 8.5 v -6 h -2 V 7.5 h 2 v -2 c 0,-2.0665 1.3085,-3.0835 3.152,-3.0835 0.883,0 1.642,0.066 1.8635,0.095 v 2.16 L 12.237,4.672 C 11.234,4.672 11,5.1485 11,5.8475 V 7.5 h 2.5 L 13,10 h -2 l 0.04,6 h 4.2935 C 15.7015,16 16,15.7015 16,15.3335 V 0.6665 C 16,0.2985 15.7015,0 15.3335,0"
       id="Fill-3-Copy" />
  </g>
</svg>
