<?xml version="1.0" encoding="UTF-8" standalone="no"?>
<svg
   width="16px"
   height="16px"
   viewBox="0 0 16 16"
   version="1.1"
   id="svg8"
   sodipodi:docname="82-youtube-simple.svg"
   inkscape:version="1.1 (c68e22c387, 2021-05-23)"
   xmlns:inkscape="http://www.inkscape.org/namespaces/inkscape"
   xmlns:sodipodi="http://sodipodi.sourceforge.net/DTD/sodipodi-0.dtd"
   xmlns="http://www.w3.org/2000/svg"
   xmlns:svg="http://www.w3.org/2000/svg">
  <defs
     id="defs12" />
  <sodipodi:namedview
     id="namedview10"
     pagecolor="#ffffff"
     bordercolor="#666666"
     borderopacity="1.0"
     inkscape:pageshadow="2"
     inkscape:pageopacity="0.0"
     inkscape:pagecheckerboard="0"
     showgrid="false"
     inkscape:zoom="32.5"
     inkscape:cx="7.9846154"
     inkscape:cy="7.9846154"
     inkscape:window-width="1600"
     inkscape:window-height="837"
     inkscape:window-x="-8"
     inkscape:window-y="-2"
     inkscape:window-maximized="1"
     inkscape:current-layer="svg8" />
  <!-- Generator: Sketch 64 (93537) - https://sketch.com -->
  <title
     id="title2">Icons / Social - YouTube</title>
  <desc
     id="desc4">Created with Sketch.</desc>
  <g
     id="Icons-/-Social---YouTube"
     stroke="none"
     stroke-width="1"
     fill="none"
     fill-rule="evenodd">
    <path
       style="color:#000000;fill:#000000;-inkscape-stroke:none"
       d="m 8.2807291,2.4009745 c 1.0721064,0.00585 4.9008719,0.046778 5.9703799,0.333291 0.688414,0.1839908 1.230506,0.7262173 1.414496,1.4145039 C 16,5.3966674 16,7.9999341 16,7.9999341 c 0,0 0,2.6033989 -0.334395,3.8511649 -0.18399,0.688287 -0.726082,1.230645 -1.414496,1.414504 C 13.00335,13.6 7.9999341,13.6 7.9999341,13.6 c 0,0 -5.0032843,0 -6.2510433,-0.334397 C 1.0604766,13.081744 0.51838499,12.539386 0.33439519,11.851099 0.03715502,10.741973 0.00412834,8.5617309 4.5870397e-4,8.0909255 V 7.9089471 C 0.00412834,7.4381634 0.03715502,5.2580121 0.33439519,4.1487694 0.51838499,3.4604828 1.0604766,2.9182563 1.7488908,2.7342655 2.8183985,2.4477522 6.6470677,2.4068217 7.7191465,2.4009745 Z M 6.252073,5.5260549 v 4.8000941 l 4.156694,-2.3999154 z"
       id="Combined-Shape-Copy" />
  </g>
</svg>
