<?xml version="1.0" encoding="UTF-8" standalone="no"?>
<svg
   width="16px"
   height="16px"
   viewBox="0 0 16 16"
   version="1.1"
   id="svg8"
   sodipodi:docname="83-rss-simple.svg"
   inkscape:version="1.1 (c68e22c387, 2021-05-23)"
   xmlns:inkscape="http://www.inkscape.org/namespaces/inkscape"
   xmlns:sodipodi="http://sodipodi.sourceforge.net/DTD/sodipodi-0.dtd"
   xmlns="http://www.w3.org/2000/svg"
   xmlns:svg="http://www.w3.org/2000/svg">
  <defs
     id="defs12" />
  <sodipodi:namedview
     id="namedview10"
     pagecolor="#ffffff"
     bordercolor="#666666"
     borderopacity="1.0"
     inkscape:pageshadow="2"
     inkscape:pageopacity="0.0"
     inkscape:pagecheckerboard="0"
     showgrid="false"
     inkscape:zoom="32.5"
     inkscape:cx="7.9846154"
     inkscape:cy="7.9846154"
     inkscape:window-width="1600"
     inkscape:window-height="837"
     inkscape:window-x="-8"
     inkscape:window-y="-2"
     inkscape:window-maximized="1"
     inkscape:current-layer="svg8" />
  <!-- Generator: Sketch 64 (93537) - https://sketch.com -->
  <title
     id="title2">Icons / RSS</title>
  <desc
     id="desc4">Created with Sketch.</desc>
  <g
     id="Icons-/-RSS"
     stroke="none"
     stroke-width="1"
     fill="none"
     fill-rule="evenodd">
    <path
       style="color:#000000;fill:#000000;-inkscape-stroke:none"
       d="m 3.6257182,12.368046 c 0.3884863,0.387562 0.6245344,0.912319 0.6254583,1.497358 -9.239e-4,0.583422 -0.236972,1.109334 -0.6236106,1.494125 l -0.00185,9.24e-4 c -0.3857147,0.384791 -0.9143979,0.62107 -1.5015158,0.62107 -0.5880416,0 -1.1146462,-0.237203 -1.50151568,-0.621994 C 0.23812686,14.974738 0,14.449981 0,13.865404 0,13.280365 0.23812686,12.754684 0.62268672,12.368046 1.0095562,11.983255 1.5361608,11.745359 2.1242024,11.745359 c 0.5871179,0 1.1158011,0.237896 1.5015158,0.622687 z M 0.0020787,5.4413488 v 3.0545371 c 1.9932442,9.239e-4 3.8811675,0.7845945 5.2914513,2.1985741 1.4130554,1.410053 2.1918758,3.299131 2.1958022,5.299997 v 0.0058 H 10.558882 C 10.556111,13.089586 9.3726362,10.453561 7.4602304,8.5402315 5.5473626,6.6266709 2.9115686,5.4422727 0.0020787,5.4413488 Z M 0.00669804,0 V 3.0538442 C 7.1364148,3.0582325 12.931374,8.8635852 12.937841,16.000231 H 16 C 15.998152,11.589918 14.205156,7.5937292 11.307677,4.694171 8.4101972,1.7959985 4.4158559,0.0020787 0.00669804,0 Z"
       id="Fill-1" />
  </g>
</svg>
