<?xml version="1.0" encoding="UTF-8" standalone="no"?>
<svg
   width="16px"
   height="16px"
   viewBox="0 0 16 16"
   version="1.1"
   id="svg9"
   sodipodi:docname="85-document-csv.svg"
   inkscape:version="1.1 (c68e22c387, 2021-05-23)"
   xmlns:inkscape="http://www.inkscape.org/namespaces/inkscape"
   xmlns:sodipodi="http://sodipodi.sourceforge.net/DTD/sodipodi-0.dtd"
   xmlns="http://www.w3.org/2000/svg"
   xmlns:svg="http://www.w3.org/2000/svg">
  <defs
     id="defs13" />
  <sodipodi:namedview
     id="namedview11"
     pagecolor="#ffffff"
     bordercolor="#666666"
     borderopacity="1.0"
     inkscape:pageshadow="2"
     inkscape:pageopacity="0.0"
     inkscape:pagecheckerboard="0"
     showgrid="false"
     inkscape:zoom="32.5"
     inkscape:cx="7.9846154"
     inkscape:cy="7.9846154"
     inkscape:window-width="1600"
     inkscape:window-height="837"
     inkscape:window-x="-8"
     inkscape:window-y="-2"
     inkscape:window-maximized="1"
     inkscape:current-layer="svg9" />
  <!-- Generator: Sketch 64 (93537) - https://sketch.com -->
  <title
     id="title2">Icons / Document CSV</title>
  <desc
     id="desc4">Created with Sketch.</desc>
  <g
     id="Icons-/-Document-CSV"
     stroke="none"
     stroke-width="1"
     fill="none"
     fill-rule="evenodd">
    <path
       style="color:#000000;fill:#000000;-inkscape-stroke:none"
       d="M 2,0 V 16 H 14.78924 V 5.5619157 L 12.402114,2.6178604 10.275237,0 Z m 1.0828073,1.0828073 6.0905606,-6.149e-4 6.149e-4,5.3642312 4.5324492,-1.537e-4 V 14.917346 H 3.0828073 Z m 7.1733677,0.6107316 1.305241,1.6065332 1.672941,2.0633905 -2.977721,1.537e-4 z"
       id="icon-document" />
    <path
       style="color:#000000;fill:#000000;-inkscape-stroke:none"
       d="m 5.63225,12.47225 c 0.5985,0 1.083,-0.285 1.37275,-0.64125 L 6.34475,11.261 C 6.16425,11.4795 5.9125,11.603 5.63225,11.603 5.124,11.603 4.82,11.204 4.82,10.74325 c 0,-0.57 0.39425,-0.874 0.81225,-0.874 0.3135,0 0.57,0.19 0.7125,0.3515 L 7.005,9.6555 C 6.625,9.19475 6.093,9 5.63225,9 4.5065,9 3.87,9.77425 3.87,10.74325 c 0,1.12575 0.76475,1.729 1.76225,1.729 z m 2.736,0 c 0.56525,0 1.273,-0.27075 1.273,-1.11625 0,-0.65075 -0.45125,-0.798 -1.04975,-1.026 -0.342,-0.133 -0.41325,-0.22325 -0.41325,-0.33725 0,-0.11875 0.076,-0.1995 0.2375,-0.1995 0.16625,0 0.34675,0.076 0.64125,0.304 L 9.55575,9.456 C 9.24225,9.17575 8.829,8.99525 8.3635,9.00475 7.7175,9.019 7.23775,9.45125 7.23775,10.026 c 0,0.68875 0.513,0.93575 1.026,1.1115 0.361,0.11875 0.4275,0.19 0.4275,0.323 0,0.1045 -0.08075,0.2185 -0.28975,0.2185 -0.209,0 -0.5035,-0.1045 -0.7695,-0.37525 l -0.513,0.627 c 0.361,0.3705 0.81225,0.5415 1.24925,0.5415 z m 3.39625,-0.0475 1.23025,-3.3725 h -0.969 l -0.65075,2.0805 h -0.0095 l -0.646,-2.0805 H 9.73625 l 1.235,3.3725 z"
       id="CSV" />
  </g>
</svg>
