<?xml version="1.0" encoding="UTF-8" standalone="no"?>
<svg
   width="16px"
   height="16px"
   viewBox="0 0 16 16"
   version="1.1"
   id="svg11"
   sodipodi:docname="86-document-excel.svg"
   inkscape:version="1.1 (c68e22c387, 2021-05-23)"
   xmlns:inkscape="http://www.inkscape.org/namespaces/inkscape"
   xmlns:sodipodi="http://sodipodi.sourceforge.net/DTD/sodipodi-0.dtd"
   xmlns="http://www.w3.org/2000/svg"
   xmlns:svg="http://www.w3.org/2000/svg">
  <defs
     id="defs15" />
  <sodipodi:namedview
     id="namedview13"
     pagecolor="#ffffff"
     bordercolor="#666666"
     borderopacity="1.0"
     inkscape:pageshadow="2"
     inkscape:pageopacity="0.0"
     inkscape:pagecheckerboard="0"
     showgrid="false"
     inkscape:zoom="32.5"
     inkscape:cx="7.9846154"
     inkscape:cy="7.9846154"
     inkscape:window-width="1600"
     inkscape:window-height="837"
     inkscape:window-x="-8"
     inkscape:window-y="-2"
     inkscape:window-maximized="1"
     inkscape:current-layer="svg11" />
  <!-- Generator: Sketch 64 (93537) - https://sketch.com -->
  <title
     id="title2">Icons / Document Excel</title>
  <desc
     id="desc4">Created with Sketch.</desc>
  <g
     id="Icons-/-Document-Excel"
     stroke="none"
     stroke-width="1"
     fill="none"
     fill-rule="evenodd">
    <path
       style="color:#000000;fill:#000000;-inkscape-stroke:none"
       d="M 2,0 V 16 H 14.78924 V 5.5619157 L 12.402114,2.6178604 10.275237,0 Z m 1.0828073,1.0828073 6.0905606,-6.149e-4 6.149e-4,5.3642312 4.5324492,-1.537e-4 V 14.917346 H 3.0828073 Z m 7.1733677,0.6107316 1.305241,1.6065332 1.672941,2.0633905 -2.977721,1.537e-4 z"
       id="icon-document" />
    <path
       style="color:#000000;fill:#000000;stroke-linecap:square;-inkscape-stroke:none"
       d="m 7.8007812,7.7246094 v 0.4746094 4.2753902 0.47461 H 8.75 V 12.474609 8.1992188 7.7246094 Z"
       id="Line-3" />
    <path
       style="color:#000000;fill:#000000;-inkscape-stroke:none"
       d="m 4,7.25 v 2.849609 h 8.550781 V 7.25 H 12.074219 Z M 4.9492187,8.1992188 H 11.599609 V 9.1503906 H 4.9492187 Z M 4,11.050781 v 2.84961 h 8.550781 v -2.84961 H 12.074219 Z M 4.9492187,12 h 6.6503903 v 0.949219 H 4.9492187 Z"
       id="Shape" />
    <path
       style="color:#000000;fill:#000000;-inkscape-stroke:none"
       d="M 4,9.1503906 V 9.625 12 h 8.550781 V 9.1503906 Z m 0.9492187,0.9492184 h 6.6503903 v 0.951172 H 4.9492187 Z"
       id="Rectangle-Copy-2" />
  </g>
</svg>
