<?xml version="1.0" encoding="UTF-8" standalone="no"?>
<svg
   width="16px"
   height="16px"
   viewBox="0 0 16 16"
   version="1.1"
   id="svg11"
   sodipodi:docname="87-document-image.svg"
   inkscape:version="1.1 (c68e22c387, 2021-05-23)"
   xmlns:inkscape="http://www.inkscape.org/namespaces/inkscape"
   xmlns:sodipodi="http://sodipodi.sourceforge.net/DTD/sodipodi-0.dtd"
   xmlns="http://www.w3.org/2000/svg"
   xmlns:svg="http://www.w3.org/2000/svg">
  <defs
     id="defs15" />
  <sodipodi:namedview
     id="namedview13"
     pagecolor="#ffffff"
     bordercolor="#666666"
     borderopacity="1.0"
     inkscape:pageshadow="2"
     inkscape:pageopacity="0.0"
     inkscape:pagecheckerboard="0"
     showgrid="false"
     inkscape:zoom="32.5"
     inkscape:cx="7.9846154"
     inkscape:cy="7.9846154"
     inkscape:window-width="1600"
     inkscape:window-height="837"
     inkscape:window-x="-8"
     inkscape:window-y="-2"
     inkscape:window-maximized="1"
     inkscape:current-layer="svg11" />
  <!-- Generator: Sketch 64 (93537) - https://sketch.com -->
  <title
     id="title2">Icons / Document Image</title>
  <desc
     id="desc4">Created with Sketch.</desc>
  <g
     id="Icons-/-Document-Image"
     stroke="none"
     stroke-width="1"
     fill="none"
     fill-rule="evenodd">
    <path
       style="color:#000000;fill:#000000;-inkscape-stroke:none"
       d="M 2,0 V 16 H 14.78924 V 5.5619157 L 12.402114,2.6178604 10.275237,0 Z m 1.0828073,1.0828073 6.0905606,-6.149e-4 6.149e-4,5.3642312 4.5324492,-1.537e-4 V 14.917346 H 3.0828073 Z m 7.1733677,0.6107316 1.305241,1.6065332 1.672941,2.0633905 -2.977721,1.537e-4 z"
       id="icon-document" />
    <g
       id="Group-4"
       transform="translate(5.000000, 6.000000)"
       fill="#000">
      <path
         style="color:#000000;fill:#000000;-inkscape-stroke:none"
         d="M 0,7 H 7 V 3.3220008 L 6.265625,2.6467432 c -0.146875,-0.1350515 -0.384375,-0.1350515 -0.53125,0 L 3,5.1610004 1.765625,4.0259929 c -0.146875,-0.1350516 -0.384375,-0.1350516 -0.53125,0 L 0,5.1610004 Z"
         id="Fill-1" />
      <path
         style="color:#000000;fill:#000000;-inkscape-stroke:none"
         d="M 1.2727273,0 C 0.57007576,0 0,0.57007576 0,1.2727273 c 0,0.7026515 0.57007576,1.2727273 1.2727273,1.2727273 0.7026515,0 1.2727273,-0.5700758 1.2727273,-1.2727273 C 2.5454546,0.57007576 1.9753788,0 1.2727273,0"
         id="Fill-3" />
    </g>
  </g>
</svg>
