<?xml version="1.0" encoding="UTF-8" standalone="no"?>
<svg
   width="16px"
   height="16px"
   viewBox="0 0 16 16"
   version="1.1"
   id="svg15"
   sodipodi:docname="95-webinar.svg"
   inkscape:version="1.1 (c68e22c387, 2021-05-23)"
   xmlns:inkscape="http://www.inkscape.org/namespaces/inkscape"
   xmlns:sodipodi="http://sodipodi.sourceforge.net/DTD/sodipodi-0.dtd"
   xmlns="http://www.w3.org/2000/svg"
   xmlns:svg="http://www.w3.org/2000/svg">
  <defs
     id="defs19" />
  <sodipodi:namedview
     id="namedview17"
     pagecolor="#ffffff"
     bordercolor="#666666"
     borderopacity="1.0"
     inkscape:pageshadow="2"
     inkscape:pageopacity="0.0"
     inkscape:pagecheckerboard="0"
     showgrid="false"
     inkscape:zoom="32.5"
     inkscape:cx="7.9846154"
     inkscape:cy="7.9846154"
     inkscape:window-width="1600"
     inkscape:window-height="837"
     inkscape:window-x="-8"
     inkscape:window-y="-2"
     inkscape:window-maximized="1"
     inkscape:current-layer="Icons-/-Webinar" />
  <!-- Generator: Sketch 64 (93537) - https://sketch.com -->
  <title
     id="title2">Icons / Webinar</title>
  <desc
     id="desc4">Created with Sketch.</desc>
  <g
     id="Icons-/-Webinar"
     stroke="none"
     stroke-width="1"
     fill="none"
     fill-rule="evenodd">
    <path
       style="color:#000000;fill:#000000;-inkscape-stroke:none"
       d="M 15.476563,0.98242188 14.982422,1 -0.0234375,1.5175781 0.5234375,13.017578 16.023437,12.482422 Z M 14.523438,2.0175781 14.976563,11.517578 1.4765625,11.982422 1.0234375,2.4824219 Z"
       id="Rectangle" />
    <path
       style="color:#000000;fill:#000000;-inkscape-stroke:none"
       d="m 5.0307692,13.061538 v 0.5 2.5 h 5.9999998 v -3 z m 1,1 h 3.9999998 v 1 H 6.0307692 Z"
       id="Rectangle-Copy-2" />
    <path
       style="color:#000000;fill:#000000;stroke-linecap:square;-inkscape-stroke:none"
       d="m 3,15 v 1 h 0.5 9 0.5 v -1 h -0.5 -9 z"
       id="Line-3" />
    <path
       style="color:#000000;fill:#000000;stroke-linecap:square;-inkscape-stroke:none"
       d="m 0.5,10 v 1 H 1 15 15.5 V 10 H 15 1 Z"
       id="Line-3-Copy" />
    <g
       id="Group-10"
       transform="translate(5.500000, 3.000000)"
       fill="#000">
      <path
         style="color:#000000;fill:#000000;-inkscape-stroke:none"
         d="m 2.5001535,3.3334789 c 0.9395911,0 1.7447357,0.2851841 2.1431641,0.696753 0,0 0.07459,0.080546 0.1184848,0.1240928 C 4.9152803,4.3069031 5,4.5259482 5,4.7521964 V 6 H 6.1391123e-4 L 0,4.7521964 C 0,4.526603 0.08502671,4.307558 0.23850451,4.1546521 0.28239917,4.111105 0.35729634,4.0302319 0.35729634,4.0302319 0.75572472,3.618663 1.5608693,3.3334789 2.5001535,3.3334789"
         id="Path" />
      <path
         style="color:#000000;fill:#000000;-inkscape-stroke:none"
         d="m 2.5001535,0 c 0.9119651,0 1.1249923,0.63126876 1.1249923,1.4092224 0,0.778281 -0.5037142,1.4095498 -1.1249923,1.4095498 -0.6212782,0 -1.1249924,-0.6312688 -1.1249924,-1.4095498 C 1.3751611,0.63126876 1.5884953,0 2.5001535,0"
         id="path11" />
    </g>
  </g>
</svg>
