<?xml version="1.0" encoding="UTF-8"?>
<svg width="16px" height="15px" viewBox="0 0 16 15" version="1.1" xmlns="http://www.w3.org/2000/svg" xmlns:xlink="http://www.w3.org/1999/xlink">
  <g transform="translate(0.000000, -0.500000)" fill="#000000">
    <path d="M6,11 C6.74025244,11 7.38657394,11.4021661 7.73239368,11.9999275 L16,12 L16,14 L7.73181186,14.0010775 C7.38584934,14.5982846 6.7398375,15 6,15 C5.2601625,15 4.61415066,14.5982846 4.26818814,14.0010775 L0,14 L0,12 L4.26760632,11.9999275 C4.61342606,11.4021661 5.25974756,11 6,11 Z M12,6 C12.7402524,6 13.3865739,6.40216612 13.7323937,6.99992752 L16,7 L16,9 L13.7318119,9.0010775 C13.3858493,9.59828461 12.7398375,10 12,10 C11.2601625,10 10.6141507,9.59828461 10.2681881,9.0010775 L0,9 L0,7 L10.2676063,6.99992752 C10.6134261,6.40216612 11.2597476,6 12,6 Z M4,1 C4.74025244,1 5.38657394,1.40216612 5.73239368,1.99992752 L16,2 L16,4 L5.73181186,4.0010775 C5.38584934,4.59828461 4.7398375,5 4,5 C3.2601625,5 2.61415066,4.59828461 2.26818814,4.0010775 L0,4 L0,2 L2.26760632,1.99992752 C2.61342606,1.40216612 3.25974756,1 4,1 Z"/>
  </g>
</svg>
