<?xml version="1.0" encoding="UTF-8" standalone="no"?>
<svg
   viewBox="0 0 384 512"
   version="1.1"
   id="svg19"
   sodipodi:docname="download.svg"
   inkscape:version="1.1.1 (3bf5ae0d25, 2021-09-20)"
   xmlns:inkscape="http://www.inkscape.org/namespaces/inkscape"
   xmlns:sodipodi="http://sodipodi.sourceforge.net/DTD/sodipodi-0.dtd"
   xmlns="http://www.w3.org/2000/svg"
   xmlns:svg="http://www.w3.org/2000/svg">
  <defs
     id="defs23">
    <inkscape:path-effect
       effect="fillet_chamfer"
       id="path-effect1025"
       is_visible="true"
       lpeversion="1"
       satellites_param="F,0,0,1,0,15,0,1 @ F,0,0,1,0,15,0,1 @ F,0,0,1,0,15,0,1 @ F,0,0,1,0,15,0,1"
       unit="px"
       method="auto"
       mode="F"
       radius="15"
       chamfer_steps="1"
       flexible="false"
       use_knot_distance="true"
       apply_no_radius="true"
       apply_with_radius="true"
       only_selected="false"
       hide_knots="false" />
  </defs>
  <sodipodi:namedview
     id="namedview21"
     pagecolor="#ffffff"
     bordercolor="#666666"
     borderopacity="1.0"
     inkscape:pageshadow="2"
     inkscape:pageopacity="0.0"
     inkscape:pagecheckerboard="0"
     showgrid="false"
     inkscape:zoom="0.97070312"
     inkscape:cx="8.7565392"
     inkscape:cy="256"
     inkscape:window-width="1920"
     inkscape:window-height="1017"
     inkscape:window-x="-8"
     inkscape:window-y="-8"
     inkscape:window-maximized="1"
     inkscape:current-layer="svg19" />
  <path
     d="m 175.41229,397.24416 c 9.5927,10.55618 25.17127,10.55618 34.76398,0 L 332.96295,262.12512 c 9.59271,-10.55617 9.59271,-27.6994 0,-38.25558 -9.5927,-10.55617 -25.17127,-10.55617 -34.76398,0 l -80.88573,89.09412 V 53.872903 c 0,-14.947544 -10.97405,-27.023808 -24.55733,-27.023808 -13.58328,0 -24.55734,12.076264 -24.55734,27.023808 V 312.87921 L 87.312844,223.95399 c -9.592711,-10.55617 -25.171271,-10.55617 -34.763981,0 -9.592709,10.55618 -9.592709,27.69941 0,38.25558 L 175.33554,397.32861 Z"
     id="path17"
     style="stroke-width:0.805034" />
  <path
     style="fill:#000000;stroke-width:1.02661"
     id="rect825"
     width="294.80316"
     height="45.354332"
     x="45.354332"
     y="434.64566"
     inkscape:path-effect="#path-effect1025"
     d="M 60.354332,434.64566 H 325.15749 a 15,15 45 0 1 15,15 v 15.35433 a 15,15 135 0 1 -15,15 l -264.803158,0 a 15,15 45 0 1 -15,-15 v -15.35433 a 15,15 135 0 1 15,-15 z"
     sodipodi:type="rect" />
</svg>
