<?xml version="1.0" encoding="UTF-8"?>
<svg width="80.5996549px" height="83px" viewBox="0 0 80.5996549 83" version="1.1" xmlns="http://www.w3.org/2000/svg" xmlns:xlink="http://www.w3.org/1999/xlink">
    <g id="FedWatch-Widget" stroke="none" stroke-width="1" fill="none" fill-rule="evenodd">
        <g id="FOMC_widget_desktop_in-progress" transform="translate(-399.700173, -136.000000)" fill="#C2CACE">
            <g id="Group-4" transform="translate(399.700173, 136.000000)">
                <path d="M65.636167,43.4086276 L73.2668584,43.4086276 L73.2668584,39.5894628 L65.636167,39.5894628 L65.636167,43.4086276 Z M40.301737,79.1808352 C20.1842862,79.1808352 3.81916485,62.2772115 3.81916485,41.4990452 C3.81916485,20.7227885 20.1842862,3.81916485 40.301737,3.81916485 C60.4172783,3.81916485 76.78049,20.7227885 76.78049,41.4990452 C76.78049,62.2772115 60.4172783,79.1808352 40.301737,79.1808352 L40.301737,79.1808352 Z M40.301737,0 C18.0780168,0 0,18.616519 0,41.4990452 C0,64.383481 18.0780168,83 40.301737,83 C62.5216381,83 80.5996549,64.383481 80.5996549,41.4990452 C80.5996549,18.616519 62.5216381,0 40.301737,0 L40.301737,0 Z M38.3921546,14.7897159 L42.2113195,14.7897159 L42.2113195,7.1590245 L38.3921546,7.1590245 L38.3921546,14.7897159 Z M6.81911883,43.4086276 L14.4498102,43.4086276 L14.4498102,39.5894628 L6.81911883,39.5894628 L6.81911883,43.4086276 Z M38.3921546,75.9269067 L42.2113195,75.9269067 L42.2113195,68.2962153 L38.3921546,68.2962153 L38.3921546,75.9269067 Z" id="Fill-1"></path>
                <path d="M57.8553825,23.9093086 L40.978493,39.648087 C40.7703486,39.6060762 40.5545657,39.5812516 40.3349638,39.5812516 C40.0103348,39.5812516 39.7009824,39.6442678 39.4049971,39.7321086 L30.378401,31.8512619 L27.8233797,34.7786518 L37.0218383,42.8103555 C37.0180191,42.88101 37.0008329,42.9478454 37.0008329,43.0184999 C37.0008329,44.9166249 38.4941263,46.4557483 40.3349638,46.4557483 C42.1758012,46.4557483 43.6671851,44.9166249 43.6671851,43.0184999 C43.6671851,42.8409088 43.6423605,42.6709559 43.6175359,42.5010031 L60.5058829,26.7526769 L57.8553825,23.9093086 Z" id="Fill-3"></path>
            </g>
        </g>
    </g>
</svg>