<?xml version="1.0" encoding="UTF-8"?>
<svg width="15px" height="19px" viewBox="0 0 15 19" version="1.1" xmlns="http://www.w3.org/2000/svg" xmlns:xlink="http://www.w3.org/1999/xlink">
    <title>Fill 3</title>
    <g id="Symbols" stroke="none" stroke-width="1" fill="none" fill-rule="evenodd">
        <g id="featured-badge" transform="translate(-3, -2)" fill="#006EB6" stroke="#006EB6" stroke-width="0.5">
            <g id="Group-5" transform="translate(4, 3)">
                <path d="M10.2718326,14.148 C10.1218326,14.091 9.9528326,14.135 9.8498326,14.258 L8.2838326,16.128 L7.1588326,11.926 C8.2058326,11.84 9.1768326,11.481 10.0008326,10.916 L12.1558326,14.864 L10.2718326,14.148 Z M5.0658326,16.128 L3.4998326,14.258 C3.3968326,14.135 3.2268326,14.091 3.0778326,14.148 L1.1938326,14.864 L3.3488326,10.916 C4.1718326,11.48 5.1438326,11.84 6.1908326,11.926 L5.0658326,16.128 Z M1.4978326,5.974 C1.4978326,3.095 3.8198326,0.753 6.6748326,0.753 C9.5298326,0.753 11.8518326,3.095 11.8518326,5.974 C11.8518326,8.853 9.5298326,11.195 6.6748326,11.195 C3.8198326,11.195 1.4978326,8.853 1.4978326,5.974 L1.4978326,5.974 Z M13.3038326,15.397 L10.6008326,10.445 C11.8278326,9.35 12.6038326,7.752 12.6038326,5.974 C12.6038326,2.68 9.9438326,0 6.6748326,0 C3.4048326,0 0.745832605,2.68 0.745832605,5.974 C0.745832605,7.752 1.5218326,9.35 2.7488326,10.445 L0.0458326047,15.397 C-0.0291673953,15.535 -0.0111673953,15.706 0.0928326047,15.824 C0.195832605,15.943 0.362832605,15.985 0.509832605,15.929 L3.0948326,14.946 L4.9538326,17.166 C5.0258326,17.252 5.1318326,17.3 5.2418326,17.3 C5.2688326,17.3 5.2958326,17.298 5.3228326,17.292 C5.4598326,17.261 5.5688326,17.157 5.6048326,17.022 L6.6748326,13.026 L7.7438326,17.022 C7.7808326,17.157 7.8888326,17.261 8.0258326,17.292 C8.0528326,17.298 8.0808326,17.3 8.1078326,17.3 C8.2178326,17.3 8.3238326,17.252 8.3958326,17.166 L10.2548326,14.946 L12.8398326,15.929 C12.9868326,15.985 13.1528326,15.943 13.2568326,15.824 C13.3598326,15.706 13.3788326,15.535 13.3038326,15.397 L13.3038326,15.397 Z" id="Fill-3"></path>
            </g>
        </g>
    </g>
</svg>