<?xml version="1.0" encoding="UTF-8" standalone="no"?>
<svg
   width="15px"
   height="15px"
   viewBox="0 0 15 15"
   version="1.1"
   id="svg17"
   sodipodi:docname="121-subscription-new.svg"
   inkscape:version="1.2 (dc2aeda, 2022-05-15)"
   xmlns:inkscape="http://www.inkscape.org/namespaces/inkscape"
   xmlns:sodipodi="http://sodipodi.sourceforge.net/DTD/sodipodi-0.dtd"
   xmlns:xlink="http://www.w3.org/1999/xlink"
   xmlns="http://www.w3.org/2000/svg"
   xmlns:svg="http://www.w3.org/2000/svg"
   xmlns:rdf="http://www.w3.org/1999/02/22-rdf-syntax-ns#"
   xmlns:cc="http://creativecommons.org/ns#"
   xmlns:dc="http://purl.org/dc/elements/1.1/">
  <sodipodi:namedview
     id="namedview19"
     pagecolor="#ffffff"
     bordercolor="#000000"
     borderopacity="0.25"
     inkscape:showpageshadow="2"
     inkscape:pageopacity="0.0"
     inkscape:pagecheckerboard="0"
     inkscape:deskcolor="#d1d1d1"
     showgrid="false"
     inkscape:zoom="15.733333"
     inkscape:cx="6.0063559"
     inkscape:cy="7.5317797"
     inkscape:window-width="1792"
     inkscape:window-height="1067"
     inkscape:window-x="0"
     inkscape:window-y="25"
     inkscape:window-maximized="1"
     inkscape:current-layer="svg17" />
  <title
     id="title2">Group 6</title>
  <defs
     id="defs5">
    <polygon
       id="path-1"
       points="0 0 15 0 15 15 0 15" />
    <mask
       id="mask-2"
       fill="#ffffff">
      <use
         xlink:href="#path-1"
         id="use7" />
    </mask>
  </defs>
  <g
     id="Symbols"
     stroke="none"
     stroke-width="1"
     fill="none"
     fill-rule="evenodd">
    <g
       id="Clip-2" />
    <path
       d="m 13.903338,3.899034 c 0,-0.7205895 4.05e-4,-1.441179 0,-2.161363 -4.05e-4,-0.4282176 -0.211964,-0.6378657 -0.643593,-0.6378657 -1.602904,-4.055e-4 -3.205402,0.00243 -4.8079006,-0.00284 -0.2342549,-8.047e-4 -0.4121752,0.076242 -0.5730735,0.2461503 -2.1767878,2.2959921 -4.356818,4.58874 -6.5360375,6.8827045 -0.3063958,0.3223797 -0.3039641,0.6098856 0.00811,0.9221275 1.5060405,1.5064664 3.0124863,3.0125264 4.5189321,4.5185874 0.3059905,0.305348 0.5994171,0.304132 0.9021653,-0.0045 0.5673995,-0.579472 1.1343938,-1.15935 1.7013881,-1.739228 1.7289471,-1.767208 3.4574891,-3.5356333 5.1888681,-5.3012195 0.160899,-0.1638257 0.246819,-0.3422496 0.244438,-0.5782559 -0.0086,-0.7145069 -0.0033,-1.4294193 -0.0033,-2.1443317 m -3.05342,-3.89734712 c 0.810166,0 1.619926,-0.001216531 2.430091,0 1.016051,0.00162203 1.717194,0.70599119 1.71841,1.72746842 0.0012,1.4472617 -0.0024,2.8941178 0.0016,4.340974 0.0012,0.5012091 -0.170632,0.922533 -0.521203,1.2793809 C 12.156122,9.7115662 9.8370792,12.0769 7.5139833,14.438585 6.7796062,15.185533 5.7971944,15.185938 5.0591697,14.446685 3.5499176,12.934991 2.0414454,11.422443 0.53378374,9.9090832 -0.16411771,9.2087691 -0.17951855,8.2318979 0.49852391,7.5177965 2.7020606,5.1990959 4.908029,2.883234 7.1111604,0.56453339 7.4738908,0.18213839 7.9103832,-0.00399025 8.4372542,0 9.2413404,0.00614747 10.045832,0.00168688 10.849918,0.00168688"
       id="Fill-1"
       fill="#00e473"
       mask="url(#mask-2)" />
    <path
       d="m 12.001256,3.5314423 c 0.0027,-0.2931742 -0.229833,-0.5313311 -0.520448,-0.5328471 -0.268202,-0.0015 -0.460806,0.1921923 -0.461186,0.464264 -3.79e-4,0.2807388 0.238571,0.5173884 0.521208,0.5166365 0.264023,-7.554e-4 0.458147,-0.1899244 0.460426,-0.4480534 M 10,3.4651202 C 10,2.6296867 10.630236,2.0007565 11.468272,2.0000014 12.325301,1.9988723 13.002644,2.6764137 13,3.5314423 12.997705,4.3435123 12.350754,4.993545 11.538931,4.9999511 10.702415,5.0067341 10,4.306206 10,3.4651202"
       id="Fill-4"
       fill="#00e473" />
  </g>
  <metadata
     id="metadata82">
    <rdf:RDF>
      <cc:Work
         rdf:about="">
        <dc:title>Group 6</dc:title>
      </cc:Work>
    </rdf:RDF>
  </metadata>
</svg>
