<?xml version="1.0" encoding="UTF-8"?>
<svg width="15px" height="17px" viewBox="0 0 15 17" version="1.1" xmlns="http://www.w3.org/2000/svg" xmlns:xlink="http://www.w3.org/1999/xlink">
    <title>Color</title>
    <defs>
        <path d="M14.3432666,8.81907715 C14.6130469,8.36226562 14.765625,7.875 14.765625,7.28591309 C14.765625,5.93193604 13.6207354,4.6533252 12.1256543,4.6533252 L11.0034668,4.6533252 C11.1548145,4.25926758 11.275708,3.78799805 11.275708,3.2216748 C11.275708,0.98240625 10.1162988,0 8.34503906,0 C6.44990186,0 6.55799854,2.92030225 6.13757812,3.34072266 C5.43784131,4.04045947 4.61133545,5.38474658 4.02240234,5.90625 L0.984375,5.90625 C0.440723145,5.90625 0,6.34697314 0,6.890625 L0,14.2734375 C0,14.8170894 0.440723145,15.2578125 0.984375,15.2578125 L2.953125,15.2578125 C3.41125928,15.2578125 3.79624219,14.9448428 3.90606152,14.5210693 C5.27523486,14.5518618 6.21503613,15.7496924 9.37555664,15.7496924 C9.59765625,15.7496924 9.84375,15.75 10.059082,15.75 C12.4313335,15.75 13.5039639,14.5372808 13.5333105,12.8174854 C13.9430259,12.2507007 14.1577427,11.4909785 14.0667187,10.7567578 C14.3698447,10.1891426 14.4870469,9.51573779 14.3432666,8.81907715 Z M12.4437305,10.4749805 C12.8300977,11.1249756 12.4824902,11.994917 12.0149121,12.2459326 C12.2517773,13.7464893 11.4732598,14.2731299 10.3808496,14.2731299 L9.21744141,14.2731299 C7.01370264,14.2731299 5.5866665,13.1097217 3.9375,13.1097217 L3.9375,7.3828125 L4.27341797,7.3828125 C5.14582031,7.3828125 6.36459961,5.20211426 7.18163086,4.38477539 C8.0540332,3.51237305 7.76333496,2.0582666 8.34503906,1.4765625 C9.79914551,1.4765625 9.79914551,2.49108398 9.79914551,3.2216748 C9.79914551,4.42661133 8.92674316,4.96647949 8.92674316,6.1298877 L12.1256543,6.1298877 C12.7750342,6.1298877 13.2862939,6.7115918 13.2890769,7.2932959 C13.2918311,7.87469238 12.8946973,8.45639648 12.603999,8.45639648 C13.0189438,8.9041333 13.1075991,9.84793359 12.4437305,10.4749805 Z M2.70703125,13.2890625 C2.70703125,13.6968091 2.37649658,14.0273438 1.96875,14.0273438 C1.56100342,14.0273438 1.23046875,13.6968091 1.23046875,13.2890625 C1.23046875,12.8813159 1.56100342,12.5507812 1.96875,12.5507812 C2.37649658,12.5507812 2.70703125,12.8813159 2.70703125,13.2890625 Z" id="path-1"></path>
    </defs>
    <g id="Symbols" stroke="none" stroke-width="1" fill="none" fill-rule="evenodd">
        <g id="Popular-badge" transform="translate(-5, -2)">
            <g id="Icons/FA/Regular/thumbs-up" transform="translate(5.1172, 2.625)">
                <mask id="mask-2" fill="white">
                    <use xlink:href="#path-1"></use>
                </mask>
                <use id="Color" fill="#3CC8FF" fill-rule="nonzero" xlink:href="#path-1"></use>
            </g>
        </g>
    </g>
</svg>