<?xml version="1.0" encoding="UTF-8"?>
<svg width="197px" height="30px" viewBox="0 0 197 30" version="1.1" xmlns="http://www.w3.org/2000/svg" xmlns:xlink="http://www.w3.org/1999/xlink">
    <!-- Generator: Sketch 52.5 (67469) - http://www.bohemiancoding.com/sketch -->
    <title>logo/positive</title>
    <desc>Created with Sketch.</desc>
    <defs>
        <path d="M13.4155,8.8222 L13.4155,8.7602 C13.4155,5.5832 11.2655,3.4952 8.7125,3.4952 C6.1575,3.4952 3.9155,5.6132 3.9155,8.7602 L3.9155,8.8222 C3.9155,11.9982 6.1575,14.0882 8.7125,14.0882 C11.2965,14.0882 13.4155,12.0602 13.4155,8.8222 Z M0.2375,0.5662 L4.0075,0.5662 L4.0075,3.3082 C5.2205,1.5962 6.9355,0.2242 9.5835,0.2242 C13.4775,0.2242 17.2455,3.3082 17.2455,8.7602 L17.2455,8.8222 C17.2455,14.2732 13.5075,17.3572 9.5835,17.3572 C6.8725,17.3572 5.1575,15.9862 4.0075,14.4602 L4.0075,23.0002 L0.2375,23.0002 L0.2375,0.5662 Z" id="path-1"></path>
        <polygon id="path-3" points="0.0001 0.722 25.4281 0.722 25.4281 26.1802 0.0001 26.1802"></polygon>
    </defs>
    <g id="Page-1" stroke="none" stroke-width="1" fill="none" fill-rule="evenodd">
        <g id="Icons" transform="translate(-423.000000, -319.000000)">
            <g id="logo/positive" transform="translate(423.000000, 318.000000)">
                <g id="Group-21">
                    <path d="M31.5141,13.4541 L31.5141,13.3921 C31.5141,7.1911 36.1551,2.1151 42.7581,2.1151 C46.7771,2.1151 49.2061,3.5161 51.2951,5.5091 L48.8341,8.3461 C47.0871,6.7241 45.2201,5.6341 42.7281,5.6341 C38.5541,5.6341 35.5311,9.0601 35.5311,13.3291 L35.5311,13.3921 C35.5311,17.6571 38.5541,21.1461 42.7281,21.1461 C45.4071,21.1461 47.1201,20.0571 48.9891,18.3131 L51.4491,20.8031 C49.1761,23.1721 46.6821,24.6651 42.6031,24.6651 C36.2481,24.6651 31.5141,19.7141 31.5141,13.4541" id="Fill-1" fill="#3A464F"></path>
                    <polygon id="Fill-3" fill="#3A464F" points="54.8056 2.4892 58.8856 2.4892 65.5216 12.8002 72.1576 2.4892 76.2366 2.4892 76.2366 24.2932 72.4066 24.2932 72.4066 8.6552 65.5216 18.9342 65.3956 18.9342 58.5766 8.7172 58.5766 24.2932 54.8056 24.2932"></polygon>
                    <polygon id="Fill-5" fill="#3A464F" points="80.3506 2.4892 96.5196 2.4892 96.5196 5.9132 84.1826 5.9132 84.1826 11.5842 95.1166 11.5842 95.1166 15.0102 84.1826 15.0102 84.1826 20.8662 96.6726 20.8662 96.6726 24.2932 80.3506 24.2932"></polygon>
                    <path d="M104.6098,13.4541 L104.6098,13.3921 C104.6098,7.2871 109.2858,2.1151 115.8578,2.1151 C119.6588,2.1151 121.9928,3.1741 124.2348,5.0731 L121.8048,7.9701 C120.1258,6.5371 118.4728,5.6341 115.6998,5.6341 C111.6818,5.6341 108.6308,9.1541 108.6308,13.3291 L108.6308,13.3921 C108.6308,17.8761 111.5888,21.1791 116.0418,21.1791 C118.0978,21.1791 119.9688,20.5231 121.3088,19.5271 L121.3088,15.4471 L115.7348,15.4471 L115.7348,12.1131 L125.0138,12.1131 L125.0138,21.2701 C122.8638,23.1091 119.7838,24.6651 115.9188,24.6651 C109.0978,24.6651 104.6098,19.8081 104.6098,13.4541" id="Fill-7" fill="#3A464F"></path>
                    <path d="M128.936,7.8447 L132.706,7.8447 L132.706,11.5517 C133.735,9.0927 135.633,7.4097 138.528,7.5337 L138.528,11.5227 L138.311,11.5227 C135.01,11.5227 132.706,13.6707 132.706,18.0317 L132.706,24.2927 L128.936,24.2927 L128.936,7.8447 Z" id="Fill-9" fill="#3A464F"></path>
                    <path d="M153.8383,16.163 L153.8383,16.101 C153.8383,13.204 151.7523,10.805 148.7913,10.805 C145.7723,10.805 143.8403,13.173 143.8403,16.038 L143.8403,16.101 C143.8403,18.966 145.9263,21.394 148.8563,21.394 C151.9063,21.394 153.8383,18.997 153.8383,16.163 M140.0683,16.163 L140.0683,16.101 C140.0683,11.397 143.8093,7.503 148.8563,7.503 C153.9003,7.503 157.6063,11.334 157.6063,16.038 L157.6063,16.101 C157.6063,20.772 153.8673,24.665 148.7913,24.665 C143.7773,24.665 140.0683,20.837 140.0683,16.163" id="Fill-11" fill="#3A464F"></path>
                    <path d="M160.6235,18.3134 L160.6235,7.8444 L164.3935,7.8444 L164.3935,17.1904 C164.3935,19.7454 165.6705,21.2084 167.9125,21.2084 C170.0945,21.2084 171.6215,19.6824 171.6215,17.1284 L171.6215,7.8444 L175.3895,7.8444 L175.3895,24.2924 L171.6215,24.2924 L171.6215,21.7384 C170.5615,23.2954 169.0355,24.6354 166.4805,24.6354 C162.7715,24.6354 160.6235,22.1434 160.6235,18.3134" id="Fill-13" fill="#3A464F"></path>
                    <g id="Group-17" transform="translate(179.000000, 7.278300)">
                        <mask id="mask-2" fill="white">
                            <use xlink:href="#path-1"></use>
                        </mask>
                        <use id="Fill-15" fill="#3A464F" xlink:href="#path-1"></use>
                    </g>
                    <g id="Group-20" transform="translate(0.000000, 0.278300)">
                        <mask id="mask-4" fill="white">
                            <use xlink:href="#path-3"></use>
                        </mask>
                        <g id="Clip-19"></g>
                        <path d="M5.7881,12.9482 L12.2541,12.9482 L12.2541,6.9152 L6.8411,6.9152 C6.1991,8.7382 5.8351,10.7772 5.7881,12.9482 Z M15.5461,26.1802 L18.0171,26.1802 L23.3291,20.8692 L19.1151,20.8692 C18.2691,22.9732 17.0601,24.7852 15.5461,26.1802 Z M11.1771,26.1802 L12.2541,26.1802 L12.2541,20.8692 L7.2061,20.8692 C8.1341,23.0542 9.4871,24.8772 11.1771,26.1802 Z M2.0671,20.8692 L7.3791,26.1802 L9.8351,26.1802 C8.3241,24.7862 7.1181,22.9732 6.2751,20.8692 L2.0671,20.8692 Z M14.3221,0.7212 L13.1741,0.7212 L13.1741,5.9942 L18.2191,5.9942 C17.3071,3.8232 15.9791,2.0132 14.3221,0.7212 Z M7.1991,5.9942 L12.2541,5.9942 L12.2541,0.7212 L11.1051,0.7212 C9.4451,2.0132 8.1141,3.8232 7.1991,5.9942 Z M6.8471,19.9482 L12.2541,19.9482 L12.2541,13.8692 L5.7881,13.8692 C5.8311,16.0542 6.1951,18.1112 6.8471,19.9482 Z M24.2321,6.9152 L19.4871,6.9152 C20.0991,8.7552 20.4461,10.7902 20.4871,12.9482 L25.4281,12.9482 L25.4281,8.1102 L24.2321,6.9152 Z M19.6151,13.8692 L13.1741,13.8692 L13.1741,19.9482 L18.5441,19.9482 C19.2001,18.1112 19.5661,16.0542 19.6151,13.8692 Z M23.3111,5.9942 L18.0381,0.7212 L15.6571,0.7212 C17.1401,2.1042 18.3271,3.9022 19.1531,5.9942 L23.3111,5.9942 Z M19.4561,19.9482 L24.2491,19.9482 L25.4281,18.7692 L25.4281,13.8692 L20.4841,13.8692 C20.4381,16.0422 20.0831,18.0932 19.4561,19.9482 Z M9.7691,0.7212 L7.2941,0.7212 L2.0891,5.9942 L6.2641,5.9942 C7.0951,3.9022 8.2841,2.1042 9.7691,0.7212 Z M13.1741,20.8692 L13.1741,26.1802 L14.2041,26.1802 C15.8961,24.8772 17.2521,23.0542 18.1841,20.8692 L13.1741,20.8692 Z M4.9181,13.8692 L0.0001,13.8692 L0.0001,18.8022 L1.1471,19.9482 L5.9361,19.9482 C5.3121,18.0932 4.9611,16.0422 4.9181,13.8692 Z M5.9291,6.9152 L1.1801,6.9152 L0.0001,8.1102 L0.0001,12.9482 L4.9181,12.9482 C4.9631,10.7902 5.3131,8.7552 5.9291,6.9152 Z M19.6181,12.9482 L13.1741,12.9482 L13.1741,6.9152 L18.5741,6.9152 C19.2131,8.7382 19.5751,10.7772 19.6181,12.9482 Z" id="Fill-18" fill="#25A9E0" mask="url(#mask-4)"></path>
                    </g>
                </g>
            </g>
        </g>
    </g>
</svg>